<svg width="43" height="43" viewBox="0 0 43 43" fill="none" xmlns="http://www.w3.org/2000/svg">
<g clip-path="url(#clip0_504_70)">
<path fill-rule="evenodd" clip-rule="evenodd" d="M21.8651 30.4936C21.8847 30.4663 21.9051 30.3914 21.9122 30.4045L21.9892 28.5664C21.9945 28.0033 22.0841 27.2074 21.982 26.6782C22.1568 26.7194 22.2735 26.7877 22.3886 26.851C22.5776 27.6072 22.3912 29.7396 22.4725 30.62L20.9474 30.6406C20.9389 30.6089 20.9338 30.5436 20.9324 30.5561C20.9324 30.5561 20.95 29.7197 20.8018 28.2779C20.708 27.3656 20.6932 26.6292 21.7132 26.6067C21.9355 27.4448 21.6779 26.8119 21.7269 28.3828C21.7524 29.199 21.592 30.1266 21.8651 30.4936H21.8651ZM21.8598 24.6311L22.1658 24.1601C22.3044 24.5851 22.0502 24.3099 22.4102 24.5324C22.6852 24.7024 24.4949 25.2776 24.1987 26.9577C24.1812 26.9623 24.1547 26.964 24.1452 26.9657L23.7748 27.0489C23.7706 26.69 23.7354 26.2793 23.6022 25.9931C23.4942 25.7609 23.2462 25.5359 23.1982 25.5373C23.3302 25.8191 23.3327 27.6445 23.3233 28.0119C23.5256 27.7893 23.5227 27.8645 23.5975 27.5154L23.6866 27.6522C23.8489 27.8758 24.0155 27.8252 24.0168 27.8209C24.022 27.804 24.0536 27.8223 24.0682 27.8321C23.8175 28.7823 23.2955 28.8241 22.6434 29.2789C22.6993 28.6436 22.8988 27.4777 22.7086 26.9892C22.5573 26.6007 22.6274 26.7958 22.4046 26.5632C22.239 26.3902 22.2704 25.3066 22.4004 25.0663L22.185 24.7821C22.1754 24.7665 22.1606 24.7389 22.1522 24.7242L22.0903 24.6007C22.0854 24.5679 22.0741 24.5565 22.062 24.5365C21.9702 24.6672 22.2239 24.6495 21.8597 24.631L21.8598 24.6311ZM21.8598 24.6311C21.8349 24.6489 21.5914 24.735 21.4922 24.7639C21.8025 24.9178 21.635 24.5313 21.7 25.1597C21.7089 25.2459 21.6926 25.6032 21.6936 25.7258C21.698 26.2976 21.841 26.3733 21.4062 26.435C21.1828 26.061 21.5345 25.3433 21.2559 24.7732L21.2518 26.4553C20.871 26.8031 20.5253 26.84 20.5561 27.6049C20.5789 28.1689 20.7033 28.6629 20.6982 29.2551C20.0195 28.8712 19.5727 28.8328 19.3791 27.8821C19.595 27.9829 19.4789 27.9252 19.6457 27.9849C19.8508 28.0583 19.712 28.088 19.7812 28.0157C19.7081 27.8445 19.6569 27.5854 19.5539 27.362C19.2344 26.67 19.5087 27.3852 19.2454 27.2591C18.6738 26.9854 19.784 24.2678 21.314 24.566C21.0454 22.9652 22.285 23.7648 21.9448 24.2253C21.8415 24.3652 21.8144 24.3256 21.6614 24.4027L21.339 24.5912L21.8599 24.631L21.8598 24.6311ZM24.428 23.4101L24.2905 26.0223C23.9553 25.5174 24.083 25.2918 23.4182 24.8318C24.0164 24.8978 23.9954 24.8854 24.2483 24.4383C23.4608 25.129 22.258 24.2988 22.6516 23.8455C22.814 23.6585 23.0819 23.5445 23.3338 23.5512C22.8859 23.5781 22.4733 23.8423 22.1605 23.8679C21.9637 23.4673 22.1174 23.4464 21.6816 23.1541C21.4176 23.3511 21.2623 23.6528 21.1422 23.8797C20.9085 23.8009 20.6658 23.6792 20.3892 23.614C20.5855 23.723 20.7051 23.821 20.8555 23.9489C20.8251 23.9521 20.7613 23.9434 20.7544 24.0646C20.7362 24.3823 20.7486 23.965 20.8287 24.2927C20.368 24.5237 19.5335 24.9995 19.1494 24.4572C19.1966 24.7692 19.2047 25.0917 19.2147 25.4083C19.2333 25.9978 19.0425 26.145 19.0422 26.1443C19.0353 26.1298 19.0119 26.1887 18.9946 26.2092C18.8604 25.1574 18.9035 18.543 19.0074 17.3681C19.0835 16.5075 19.1826 15.4407 19.1883 14.5502L20.8325 14.4886C20.8545 14.8502 20.8403 15.248 20.8423 15.6239C20.8443 16.0068 20.7947 16.4082 21.0127 16.7089L21.0009 14.5133C21.4518 14.4382 23.7993 14.4726 24.1852 14.5779C24.2147 15.9835 24.3827 17.4037 24.4238 18.8367C24.468 20.3734 24.4535 21.8741 24.428 23.4101H24.428ZM14.7478 11.2655C14.3821 11.359 13.3843 11.5843 13.2216 11.7542L12.7581 12.9811L12.5548 13.4421C12.4661 12.8249 12.7719 13.1661 12.2898 13.0068L12.4706 13.8505C12.5076 13.8881 12.2978 13.8754 12.6545 13.9449L12.917 13.0478C13.0588 13.1828 13.2495 12.7924 12.9978 13.518L12.8186 13.7888C13.3267 13.7799 12.8081 13.2336 13.486 12.9651L13.1709 13.7015C13.4336 13.661 13.3252 13.6231 13.4222 13.2671C13.546 12.8119 13.3635 12.9557 13.8583 12.8767L13.5476 13.6052C14.1178 13.6105 13.5019 12.977 14.1788 12.814L13.8982 13.5511C14.1964 13.4966 14.0533 13.5949 14.158 13.2636C14.1863 13.1742 14.2124 13.0403 14.2389 12.9636C14.2995 12.7879 14.2458 12.8991 14.3383 12.7405C14.3503 12.7573 14.4695 12.7528 14.3966 13.1737C14.3721 13.315 14.3129 13.4237 14.2859 13.4977L15.2558 13.3626L15.4015 12.5691C16.3359 12.3085 17.2299 12.263 18.1909 12.2002C18.4258 12.1497 18.2643 12.143 18.4291 12.2938C18.3104 12.4362 18.325 12.7025 18.274 12.9705L18.7675 12.8804L18.8481 12.0638C18.9296 12.1279 19.1962 11.8919 18.9268 12.9261C19.7622 12.9017 19.5547 12.826 19.6471 12.3324C19.7676 11.6887 19.5606 12.6566 19.6898 12.1645L19.7539 12.0109C19.9335 12.2295 19.8955 12.4758 19.8195 12.8341H20.2793L20.2827 12.0044L20.5427 12.0126L21.1334 11.9758C21.1719 11.9735 21.1873 11.9715 21.2253 11.9701C21.263 11.9687 21.2789 11.9684 21.3165 11.9679C21.3541 11.9675 21.4611 11.9724 21.4986 11.9733C22.4412 11.9973 23.1244 12.08 24.071 11.9531L24.0393 12.9014L24.9262 12.9955C24.9403 12.7456 24.8173 12.3294 24.7478 12.1057C25.2155 12.1975 25.0239 12.0335 25.1529 12.4558C25.1849 12.5607 25.2115 12.8543 25.2416 13.0011L26.0806 13.1014L25.8344 12.2363C26.6486 12.2996 26.3039 12.3426 26.5445 13.1376L27.2423 13.2084C27.209 13.1025 27.1401 12.91 27.1224 12.8045C27.0345 12.2823 27.0464 12.5793 27.1889 12.3888C27.4365 12.643 27.4309 12.9261 27.5044 13.2585L27.9403 13.3693L27.7018 12.5203C28.3655 12.639 27.753 13.0302 28.2903 13.4626C28.3925 13.2639 28.3526 13.1285 28.3194 12.9468L28.5033 13.0474C28.5685 13.282 28.5521 13.3068 28.6575 13.4865C28.6644 13.4706 28.669 13.4448 28.6697 13.4359C28.6705 13.4268 28.6785 13.3951 28.6787 13.3835C28.6834 13.1186 28.5834 13.0793 28.5915 12.8532L28.6575 12.659C28.9288 13.0213 28.7772 13.2538 29.0494 13.5741L28.818 12.7226C29.3112 12.8105 29.0831 12.6432 29.223 13.1439C29.2832 13.3593 29.3293 13.5251 29.4617 13.6523L29.1953 12.8286C29.891 12.9462 29.3553 13.3837 29.8179 13.6922L29.5209 12.8877C29.7606 12.9577 29.7732 12.9605 30.0131 13.0233L30.3566 13.1203C30.3676 13.0994 30.4027 13.1347 30.4255 13.1427C30.8476 14.7105 30.5839 13.2638 31.2041 14.5497C31.3326 14.816 31.368 14.7892 31.4801 15.0733L31.325 15.1179C31.3028 15.12 31.2724 15.1261 31.2488 15.1264L30.9503 15.0444C29.9689 14.7021 27.7906 14.4826 26.7537 14.3645L23.7808 14.0963C24.1198 13.7028 23.6702 14.0677 24.0294 13.1452C23.3027 13.0909 22.8945 12.9189 22.1291 13.0519L22.23 14.0324L17.9202 14.237C16.5455 14.3058 15.2852 14.6956 13.9321 14.7237C14.0078 14.4285 13.9755 14.514 14.0202 14.2283C14.039 14.1091 14.0241 14.1341 14.061 14.0095C14.2081 13.5126 13.8147 14.1054 14.1457 13.8611C13.7482 13.8693 12.7543 14.0326 12.5939 14.2466C12.1351 14.1961 12.5374 14.1579 12.5155 14.3452L12.5485 14.8155L12.949 14.9055L11.8755 15.2402C11.9747 14.7855 12.0248 14.7677 12.178 14.3717C11.4314 14.497 10.925 14.4402 10.2415 14.5476C9.61923 14.6454 9.06661 14.8154 8.45366 14.8557L8.57956 14.3178L8.0142 14.4029C7.40745 14.5537 7.60018 14.4785 7.39774 14.9934C7.258 15.3489 7.14909 15.4982 7.05507 15.8992C7.1183 15.9292 6.93354 16.059 7.27894 15.9271C7.36194 15.2838 7.49208 15.3298 8.77763 15.1348C8.68178 15.2579 8.62899 15.4641 8.57821 15.5993C9.2139 15.473 9.95169 15.3317 10.644 15.3052C10.6454 15.1952 10.6386 15.1055 10.664 14.9984C10.7354 14.6981 10.5815 15.0181 10.7586 14.8069C10.9447 15.0462 10.7512 14.6756 10.8113 14.9859C10.8188 15.0247 10.8171 15.1306 10.8269 15.156C10.886 15.3091 10.5897 15.274 11.0339 15.2717C11.1848 15.056 11.009 15.2759 11.0976 15.0544L11.2675 14.7214C11.2225 15.066 11.1364 15.113 11.307 15.273L11.9969 15.1781L11.771 16.0717C10.6355 16.0068 9.35311 16.252 8.28024 16.4442C8.26395 16.4192 8.24787 16.385 8.23918 16.3646C8.16447 16.1895 8.12046 16.1564 8.18072 15.9627C8.18223 15.9577 8.19974 15.9458 8.20109 15.9294C8.20235 15.9135 8.21321 15.9061 8.22321 15.903L7.96044 15.8675L6.95391 16.1318C6.82112 17.4686 5.69506 19.4605 6.3254 23.1615C6.39403 23.5642 6.45808 23.9354 6.54458 24.3248C6.58026 24.4851 6.62055 24.6882 6.66346 24.8392C6.7729 25.2245 6.62382 25.1041 6.96069 25.2778C6.37476 22.8115 6.15803 20.3076 6.70481 17.8019C6.96771 16.597 6.71306 16.9371 8.45725 16.5724C7.78984 19.085 7.97995 22.9942 8.49109 25.54L8.68819 25.5824C8.38528 24.3235 8.14022 22.2906 8.26379 20.9757L8.51175 23.0171C8.46721 21.9804 8.18937 20.8124 8.22211 19.7544C8.23983 19.1821 8.49709 16.9745 8.66055 16.6467C8.69472 17.8036 8.56306 18.7972 8.67071 20.0329C8.72097 20.6103 9.00052 22.6335 8.96362 22.9393C8.93516 21.387 8.76387 19.8235 8.77257 18.0054C8.77408 17.6866 8.75509 17.4754 8.75803 17.1737C8.76448 16.5162 8.87589 16.579 9.01456 16.5139C9.14515 16.7329 9.06555 17.1443 9.05302 17.4593C9.02971 18.0441 9.03155 19.6496 9.16287 20.2158L9.27375 16.6086C9.27567 16.5764 9.28277 16.5657 9.28877 16.5276L9.88168 16.4371C9.6745 17.3483 9.63903 20.5535 9.94463 21.2888L9.95724 16.4494L11.0855 16.3447C11.2061 16.8905 10.8862 20.1055 10.8764 21.0395C10.8594 22.66 11.1322 24.2877 11.1039 25.8498L11.3458 25.8628L11.4862 26.6153C10.7945 26.5614 10.0805 26.4714 9.42234 26.386C7.6121 26.1513 8.30886 26.3083 8.34927 25.6764C7.79976 25.5436 7.43489 25.4131 6.84516 25.3915C6.9446 25.7525 7.13218 26.5388 7.32536 26.7928C7.73518 26.542 7.31229 26.821 7.36185 26.271C7.43611 26.3906 8.31392 26.4971 8.64736 26.6019C8.73044 26.8842 8.63487 26.9397 8.92275 27.1012C9.07988 26.9565 8.92916 26.6398 8.92177 26.6344C10.2709 26.8087 9.49068 26.7182 9.93238 27.2791C9.94295 27.2627 9.94524 27.233 9.94704 27.2224C9.94887 27.2118 9.95745 27.1784 9.95936 27.1652C10.0073 26.8331 9.86523 26.9497 10.0242 26.7495C10.3517 27.1235 9.90601 27.2095 10.3896 27.315C10.2982 27.037 10.2929 26.9685 10.3913 26.7826C10.749 27.0207 10.4381 26.7511 10.5725 27.0907C10.6475 27.28 10.4607 27.0665 10.6667 27.3675C10.7332 27.2534 10.6726 27.413 10.7001 27.1971L10.7585 26.8227C11.035 27.148 10.6816 27.2444 11.0338 27.3897C11.2618 27.1457 10.8669 27.1654 11.1256 26.8728C11.4262 27.3041 10.9088 27.3298 11.4927 27.4573L11.5515 27.1677C11.5531 27.1426 11.5525 27.0514 11.5531 27.0323L11.9318 28.2857C11.4933 28.2482 9.11291 27.9718 8.74575 27.821C8.18476 27.5904 8.55959 27.7494 8.4895 27.5394C8.37569 27.1985 8.71505 27.3478 8.37234 27.2674C8.24799 27.0714 7.90614 27.0827 7.62198 27.056C7.71517 27.3789 7.63353 27.3346 7.92557 27.4531C7.53727 27.6278 7.68084 27.473 7.56854 27.827C8.02281 28.2563 7.20869 28.3378 9.49133 28.8662C10.2498 29.0418 11.2196 29.1579 12.1262 29.2083C12.0025 28.8247 11.9725 28.8703 11.8911 28.5227L12.2563 28.5699C11.6994 27.0332 11.3111 23.7716 11.3186 21.9574C11.3239 20.6684 11.7151 16.3706 12.2271 15.4271L14.64 14.9808C14.3685 15.7913 14.2406 17.4373 14.1333 18.3702C13.7764 21.4735 13.9135 25.916 14.6602 28.9902L14.9678 29.0793C14.5097 27.9061 14.1002 22.9319 14.208 21.5338L14.7496 25.3975C14.7408 24.5251 14.3337 21.6648 14.278 20.1245C14.24 19.0716 14.6081 15.8745 14.889 14.9699L14.9627 15.3571C14.9575 15.52 14.9271 15.7258 14.9141 15.8967C14.7963 17.4341 14.9226 22.3372 15.2562 23.2512C15.2586 21.9657 15.1548 20.381 15.0886 19.1138C15.0189 17.7797 15.0784 16.2946 15.1239 14.9611L15.6797 14.8256C15.4889 16.093 15.5638 22.058 15.9061 23.0652C15.8701 21.7715 15.6531 20.1263 15.7424 18.8895L15.8078 14.8371L16.8119 14.7597C16.6082 15.6254 16.7608 23.8646 16.9812 24.6323L16.909 14.7209L18.8478 14.5131C18.4456 18.1412 18.3779 25.9615 18.8459 29.4832L19.1984 29.4857L19.0973 28.0039C19.5993 28.7022 19.5704 29.0697 20.7552 29.576C20.7914 29.8837 20.7677 29.8996 20.7325 30.212L20.744 30.7413C21.2184 30.8046 21.7945 30.6851 22.272 30.8606C22.1122 30.765 21.4402 30.8388 21.2226 30.8356C19.9568 30.8171 14.4913 30.4803 14.0627 30.0509C13.9661 29.9541 14.0636 29.9153 14.0965 29.6557C14.1196 29.4739 14.1062 29.3927 14.15 29.1692L12.4243 28.8896C12.5282 29.0064 12.5398 28.8131 12.5418 29.2547L12.6083 29.5059C12.6191 29.52 12.6534 29.5604 12.6673 29.5748L12.8978 29.7643C12.7927 29.7523 12.6465 29.7241 12.5455 29.7424C12.2831 29.7898 12.6216 29.5453 12.383 29.8509L12.7199 31.0063L13.0026 31.0267C12.9122 30.8598 12.7194 30.3546 12.7037 30.1006C12.936 30.1371 12.9903 30.1484 13.2362 30.2265L13.9528 30.4021C14.4368 30.5059 14.4614 30.6207 15.0327 30.6101L15.2419 31.5659L15.4953 31.5928L15.2609 30.6785C15.7925 30.7762 17.4992 31.0568 18.0092 31.0016L18.0457 31.962L19.1776 32.128C19.6712 32.1605 19.4204 32.0401 19.4039 31.6235C19.392 31.3203 19.3033 31.3964 19.3864 31.1648C19.7336 31.1436 20.1135 31.2367 20.5131 31.2316C21.6312 31.2171 22.8061 31.0803 24.0061 31.2107L23.9276 32.1486L24.268 32.1094L24.3752 31.166C24.8237 31.0912 25.2999 31.0436 25.6987 31.0097C26.1393 30.9722 26.6935 30.8347 27.0963 30.8197C27.0217 31.0608 26.9184 31.484 26.9127 31.7884C27.395 31.5169 26.8387 30.924 27.4611 30.8119L27.1907 31.708C27.6816 31.6864 27.6125 31.7335 27.7089 31.278C27.779 30.9466 27.7034 30.7164 28.0265 30.7602C27.8661 30.9168 27.7937 31.3996 27.7158 31.6307C28.1744 31.5995 28.0964 31.6728 28.2223 31.2207C28.2951 30.9592 28.246 30.7384 28.4521 30.6487L28.1713 31.5344C28.7334 31.459 28.478 31.6005 28.697 30.6072L29.7126 30.3451C30.1806 30.2666 30.284 30.0812 30.5871 30.1676C30.6733 30.4406 30.3545 30.794 30.2535 31.0568L30.5847 31.0227L30.7191 30.7921C30.734 30.4234 30.899 30.1239 30.9714 29.7062C30.5691 29.713 29.6027 29.9766 29.1783 30.0819C28.6846 30.2043 27.8937 30.3614 27.3753 30.4004C26.3518 30.433 25.4939 30.9072 23.5659 30.6964L23.6555 30.3248C23.6862 30.0044 23.6793 29.9512 23.777 29.7305L22.5488 29.6678C22.8992 29.3717 23.6729 29.5089 24.1098 29.535C24.0884 29.2532 24.0198 28.8022 23.994 28.6652C23.969 28.5326 23.7784 28.7829 24.146 28.1892C24.2571 28.0097 24.1939 28.1051 24.2701 28.0097L24.1297 29.5309L24.4751 29.4965C24.6455 28.9461 24.6543 26.5727 24.6798 25.8129C24.7231 24.5207 24.7257 23.3481 24.7647 22.0493C24.8011 20.8369 24.6531 15.6552 24.5011 14.52C25.6785 14.7564 26.8884 14.6226 28.4553 14.9815C28.9257 16.5912 29.0638 20.2218 29.0289 22.143C28.9688 25.4381 28.9321 25.9667 28.3823 29.1217L28.6339 29.0591C29.1286 27.5137 29.4458 23.89 29.4818 22.0493C29.5242 19.8841 29.1717 16.9673 28.7034 14.987L31.1355 15.4592C31.6587 16.8804 32.1492 20.1018 32.0288 21.715L31.604 18.8697C31.86 20.0064 32.0848 22.7654 31.9616 23.9803C31.7651 25.9195 31.1776 27.8781 31.1075 28.6284L31.4048 28.6037C31.3741 28.8201 31.2896 28.9336 31.2211 29.1897C32.998 29.1776 35.0687 28.9531 36.5212 28.17C36.5299 27.9622 36.5597 27.8904 36.4921 27.7005C36.3784 27.3809 36.162 27.4315 36.0263 27.3551C35.7954 27.2252 36.0272 27.4419 35.8979 27.2464C35.7881 27.0805 35.9172 27.0698 35.7915 26.909C35.6224 27.0013 34.6669 27.2309 34.4252 27.2757C33.765 27.3978 33.319 27.34 33.7348 27.9817C33.0357 28.0946 32.5934 28.2404 31.8698 28.2149C31.7619 28.0426 31.8651 28.0931 31.8162 27.8473C31.7326 27.4268 31.821 27.9426 31.6349 27.5048C31.9613 27.411 33.615 27.2315 33.8637 27.2716C33.9756 26.7884 33.8357 26.7709 34.1893 26.657C34.1411 26.7749 34.099 26.8195 34.0948 26.9306C34.0824 27.2569 34.0214 27.0159 34.1645 27.1933C34.3505 26.906 34.2291 26.7562 34.4725 26.5992C34.4407 26.7945 34.3172 26.9959 34.4399 27.1914C34.7339 26.9747 34.622 27.005 34.7153 26.5954C34.8305 26.7261 34.7612 26.5444 34.6677 27.0989L35.18 26.9959L35.3136 26.4361C35.3717 26.4647 35.3794 26.4783 35.382 26.5115L35.4495 26.9289C36.1083 26.7088 35.8482 26.958 36.1798 26.7162L36.3649 25.9661C36.0625 25.831 34.5103 26.3792 33.8729 26.4138C33.0371 26.5586 32.7199 26.5752 31.9018 26.6003L32.0071 25.8243L32.3282 25.8778L32.3235 25.5302C32.3568 24.02 32.4329 22.5021 32.4667 20.9477C32.4916 19.8015 32.467 17.3442 32.2631 16.31L34.8069 16.5797L35.0684 19.2502C35.2237 20.3392 35.0884 21.489 35.0836 22.6035C35.0802 23.3964 35.0553 24.1584 34.8995 24.8708C34.8349 25.1663 34.7718 25.3395 34.9288 25.6004C35.4181 22.8284 35.7242 19.344 34.9451 16.5984C35.8667 16.8151 36.3501 16.8055 36.507 17.1166C36.8213 17.7395 37.0313 19.897 37.0331 20.4877C37.0412 23.1238 36.8691 22.458 36.7095 24.3196C36.6752 24.3829 36.5951 24.6682 36.561 24.8227C36.4853 25.1663 36.3883 25.3261 36.6251 25.2747C37.0224 24.0656 37.2747 22.3544 37.272 20.947C37.2688 19.2302 36.9203 18.1786 36.6553 16.692C34.7616 16.063 33.1126 16.3157 31.8698 16.0365C31.8647 16.0213 31.862 15.9961 31.8612 15.9892C31.8605 15.9823 31.8544 15.9513 31.8538 15.9429L31.8619 15.7538C31.9682 15.2435 31.9581 15.5375 31.9814 15.5318C31.4165 15.3714 31.5367 15.4346 31.3195 15.1655C31.7632 15.1696 31.9479 15.275 32.2543 15.2563L32.237 14.7948C32.7117 14.8536 33.6907 14.9931 34.1641 14.9405C34.1755 15.215 34.1399 15.3717 34.3481 15.4859C34.3484 15.4554 34.3258 15.3357 34.3331 15.3118C34.3391 15.2924 34.3515 15.2615 34.3595 15.2418L34.46 15.0751C34.4707 15.0175 34.498 15.009 34.4988 14.9856L34.574 15.6487C34.7011 15.4992 34.7406 15.6871 34.5923 15.055C34.9485 15.1727 35.4859 15.2399 35.7645 15.3261C36.1751 15.4532 35.9668 15.3716 36.0701 15.6191C36.2646 16.0853 35.9181 15.9462 36.3855 16.0251C36.3273 15.5607 35.9762 14.8301 35.7997 14.3581C35.4878 13.5238 35.4073 13.6554 34.5068 13.4388C33.1448 13.1111 32.0532 13.0881 30.6505 12.9846L30.5084 12.7107C30.1483 12.6278 30.0171 12.5067 29.5636 12.4067C29.2088 12.3285 28.9113 12.2868 28.5737 12.2173C28.2227 12.145 26.9516 11.9607 26.7292 11.8303C25.5998 11.8079 24.6519 11.6663 23.5434 11.5076C23.6806 11.1454 23.5606 10.9244 23.7241 10.5423L22.0986 10.5194L22.1639 11.4805C20.7766 11.5227 19.5393 11.5821 18.2007 11.6747C16.8968 11.7649 15.7502 12.1465 14.5738 12.2195C14.7104 11.942 14.6637 11.6628 14.7475 11.2654L14.7478 11.2655Z" fill="#4D2D16"/>
<path fill-rule="evenodd" clip-rule="evenodd" d="M24.4754 29.4966C25.1499 29.5295 25.8179 29.4466 26.523 29.3635C27.1279 29.2923 27.8123 29.139 28.3825 29.1218C28.9324 25.9668 28.9691 25.4382 29.0291 22.1431C29.0641 20.2219 28.926 16.5913 28.4556 14.9816C26.8886 14.6226 25.6788 14.7565 24.5014 14.5201C24.6534 15.6553 24.8014 20.8371 24.765 22.0495C24.726 23.3483 24.7234 24.5208 24.6801 25.813C24.6546 26.5728 24.6458 28.9462 24.4754 29.4966V29.4966Z" fill="#D69A34"/>
<path fill-rule="evenodd" clip-rule="evenodd" d="M14.968 29.0795L18.8462 29.4833C18.3781 25.9617 18.4459 18.1414 18.848 14.5132L16.9092 14.721L16.9814 24.6324C16.761 23.8647 16.6084 15.6255 16.8121 14.7599L15.808 14.8372L15.7426 18.8896C15.6533 20.1264 15.8703 21.7717 15.9064 23.0653C15.564 22.0581 15.4891 16.0932 15.6799 14.8258L15.1241 14.9613C15.0786 16.2948 15.0191 17.7798 15.0888 19.114C15.155 20.3811 15.2588 21.9659 15.2564 23.2513C14.9228 22.3373 14.7965 17.4342 14.9143 15.8968C14.9273 15.726 14.9577 15.5201 14.9629 15.3573L14.8892 14.97C14.6084 15.8747 14.2401 19.0717 14.2782 20.1247C14.3339 21.6649 14.741 24.5252 14.7498 25.3977L14.2082 21.534C14.1004 22.9321 14.5099 27.9062 14.968 29.0795H14.968Z" fill="#DAA536"/>
<path fill-rule="evenodd" clip-rule="evenodd" d="M23.3337 23.5512C23.5002 23.3752 23.4208 23.5425 23.5168 23.1524C23.3131 23.0353 22.9479 22.2733 22.0047 22.11C21.4695 22.0173 21.013 22.4858 21.2426 20.0585C21.772 20.1547 21.5952 20.0452 22.2878 20.2463C22.3989 20.2786 22.354 20.268 22.5111 20.3007C23.0917 20.4214 23.2173 20.5165 23.6338 20.8269C24.1669 21.2241 24.0547 20.9599 24.1873 21.9368L24.4279 23.4101C24.4534 21.8742 24.4679 20.3735 24.4237 18.8367C24.3826 17.4038 24.2146 15.9835 24.1851 14.578C23.7992 14.4726 21.4517 14.4383 21.0008 14.5133L21.0127 16.709C20.7946 16.4083 20.8441 16.0068 20.8422 15.6239C20.8403 15.2481 20.8544 14.8502 20.8324 14.4886L19.1882 14.5503C19.1825 15.4407 19.0835 16.5076 19.0073 17.3681C18.9034 18.5431 18.8604 25.1575 18.9945 26.2093C19.0118 26.1887 19.0352 26.1298 19.0421 26.1443C19.0425 26.145 19.2332 25.9978 19.2146 25.4083C19.2047 25.0917 19.1965 24.7693 19.1493 24.4572C19.5334 24.9995 20.3679 24.5237 20.8286 24.2927C20.7485 23.9651 20.7362 24.3823 20.7543 24.0647C20.7612 23.9434 20.825 23.9521 20.8554 23.9489C20.705 23.821 20.5855 23.7231 20.3891 23.6141C20.6657 23.6792 20.9084 23.801 21.1421 23.8797C21.2622 23.6529 21.4176 23.3511 21.6815 23.1542C22.1174 23.4464 21.9636 23.4673 22.1604 23.868C22.4733 23.8424 22.8858 23.5782 23.3337 23.5512V23.5512Z" fill="#DAA536"/>
<path fill-rule="evenodd" clip-rule="evenodd" d="M12.2564 28.5701L14.6603 28.9904C13.9136 25.9162 13.7765 21.4738 14.1334 18.3704C14.2407 17.4374 14.3686 15.7915 14.6401 14.981L12.2272 15.4273C11.7152 16.3708 11.3241 20.6686 11.3187 21.9577C11.3112 23.7719 11.6995 27.0334 12.2564 28.5701H12.2564Z" fill="#D49B2B"/>
<path fill-rule="evenodd" clip-rule="evenodd" d="M28.6342 29.0592L31.1078 28.6285C31.1779 27.8782 31.7654 25.9196 31.962 23.9804C32.0851 22.7655 31.8603 20.0065 31.6044 18.8698L32.0292 21.7152C32.1495 20.1019 31.659 16.8805 31.1358 15.4593L28.7037 14.9871C29.172 16.9674 29.5245 19.8842 29.4821 22.0494C29.4461 23.8902 29.1289 27.5138 28.6343 29.0592H28.6342Z" fill="#D49B2B"/>
<path fill-rule="evenodd" clip-rule="evenodd" d="M27.7138 35.4851C27.5161 35.4705 27.6224 35.4246 27.5456 35.542C28.2441 35.3462 27.8578 34.8722 27.8314 34.2337C27.6936 34.4244 27.7595 34.5358 27.6627 34.7052C27.5255 34.945 27.4793 34.8877 27.236 35.0213C27.3969 34.4116 27.2783 35.0069 27.5618 34.517C27.2063 34.581 26.8832 34.7208 26.541 34.762C24.5513 35.0021 20.5666 35.1107 18.7869 34.9113C17.3492 34.7503 15.7857 34.7134 14.56 34.3494C13.8642 34.1427 12.1207 34.0726 11.6057 33.0325C11.1032 32.0179 12.4706 31.8964 12.5518 31.5457C12.5589 31.515 12.579 31.508 12.5945 31.4907C13.0302 31.4794 12.8581 31.3876 13.0272 31.6313C13.0276 31.2715 13.0225 31.5205 12.8688 31.2281L13.3387 31.337L14.728 31.6084C15.1149 31.6793 15.2208 31.809 15.6766 31.8708C16.7296 32.0134 17.7503 32.0504 18.739 32.284C18.6061 32.8909 18.7001 32.9376 18.9279 33.0611C19.2392 32.8567 18.9358 33.1552 19.0655 32.8812L19.1905 32.3465C19.1873 32.3387 18.9165 32.2214 19.1115 32.3104C19.8518 32.3466 21.5035 32.1475 22.0867 32.297L23.8832 32.2867C23.8748 32.7597 23.9875 32.8474 23.7534 33.2521C24.7482 33.2683 25.7829 32.9547 26.5706 32.9789C26.3805 32.8445 26.3518 32.8378 25.9373 32.8455C26.138 32.7319 26.121 33.0136 26.1053 32.0735L30.2179 31.184C29.874 31.1649 29.0114 31.4192 28.6289 31.5032C28.5936 31.1035 28.6397 31.249 28.7044 30.9309C28.7138 30.8848 28.7329 30.7877 28.7341 30.7467C28.7409 30.5039 28.7911 30.7476 28.6974 30.6072C28.4784 31.6005 28.7338 31.459 28.1716 31.5345L28.4525 30.6487C28.2464 30.7385 28.2955 30.9592 28.2227 31.2207C28.0968 31.6729 28.1748 31.5995 27.7162 31.6307C27.7941 31.3996 27.8665 30.9168 28.0269 30.7603C27.7038 30.7165 27.7794 30.9466 27.7093 31.2781C27.6129 31.7335 27.682 31.6865 27.191 31.7081L27.4615 30.812C26.8392 30.924 27.3954 31.5169 26.9131 31.7885L24.3366 32.1402L24.3756 31.1661L24.2683 32.1095C23.4523 32.1866 22.5072 32.15 21.6815 32.1641C20.893 32.1775 19.8633 32.0608 19.1779 32.1281L18.0461 31.9621C17.5441 31.9049 17.1765 31.8808 16.6935 31.8074C16.3374 31.7534 15.7702 31.6122 15.4956 31.593L15.2423 31.566L13.003 31.0269L12.7203 31.0064C12.7093 31.0043 12.2956 30.5348 12.258 30.3384C12.2404 30.6 12.5849 30.7098 11.3094 30.7385C10.9887 30.744 11.4834 30.6564 11.152 30.8289C10.9844 30.9162 11.0425 30.8955 10.8221 30.9543C8.8235 31.4867 10.293 31.1269 8.99374 31.7761C8.58894 31.9783 7.85572 32.676 8.55505 33.2396C8.9423 33.5518 8.79709 33.5242 8.94058 33.6948C9.08432 33.8656 9.12645 33.8505 9.5535 33.9644C10.6122 34.2468 10.2757 34.3817 10.8728 34.4691C11.6205 34.5786 12.1962 34.7819 12.9008 35.0244L17.6422 35.5797C18.8491 35.595 19.8374 35.675 21.0391 35.6801C22.8902 35.6879 24.615 35.5286 26.1778 35.502L27.4865 35.5727C27.7746 35.5682 27.6044 35.7308 27.7138 35.4851L27.7138 35.4851Z" fill="#D2D3CC"/>
<path fill-rule="evenodd" clip-rule="evenodd" d="M18.1909 12.2003L18.1377 12.9623C17.3093 12.9818 16.5605 13.1603 15.8666 13.2437C15.5603 13.2805 15.5201 13.2392 15.2558 13.3626L14.2859 13.4977C14.3129 13.4236 14.3721 13.315 14.3966 13.1737C14.4695 12.7528 14.3503 12.7574 14.3384 12.7405C14.2459 12.8991 14.2995 12.7879 14.2389 12.9636C14.2125 13.0403 14.1864 13.1742 14.1581 13.2636C14.0533 13.595 14.1964 13.4967 13.8982 13.5512L14.1788 12.8141C13.502 12.977 14.1178 13.6105 13.5476 13.6052L13.8583 12.8767C13.3634 12.9558 13.546 12.8119 13.4222 13.2671C13.3253 13.6231 13.4336 13.6611 13.171 13.7015L13.4861 12.9651C12.8082 13.2336 13.3267 13.7799 12.8186 13.7888L12.9978 13.5181C13.2495 12.7925 13.0589 13.1828 12.917 13.0479L12.6546 13.9449C12.2978 13.8754 12.5076 13.8882 12.4707 13.8505L12.2898 13.0068C12.7719 13.1662 12.4661 12.8249 12.5548 13.4421L12.7581 12.9811C11.4024 12.8078 9.80672 13.1679 8.47598 13.4785C8.3814 13.5007 8.25823 13.5193 8.1772 13.5451L7.84572 13.7222C7.65197 13.9093 7.6196 14.1524 7.54645 14.4304L8.0142 14.4032L8.57955 14.3181L8.45365 14.856C9.06661 14.8157 9.61922 14.6457 10.2414 14.5479C10.925 14.4405 11.4314 14.4973 12.178 14.372C12.0248 14.768 11.9747 14.7857 11.8755 15.2405L12.949 14.9058L12.5485 14.8158L12.5155 14.3455C12.5374 14.1582 12.1351 14.1964 12.5939 14.2469C12.7543 14.0329 13.7482 13.8696 14.1457 13.8614C13.8147 14.1057 14.2081 13.5129 14.061 14.0098C14.0241 14.1344 14.039 14.1094 14.0202 14.2287C13.9755 14.5142 14.0078 14.4288 13.9321 14.724C15.2853 14.6959 16.5455 14.3061 17.9202 14.2373L22.23 14.0327L22.1291 13.0522C22.8945 12.9192 23.3027 13.0912 24.0294 13.1455C23.6702 14.068 24.1198 13.7031 23.7808 14.0966L26.7537 14.3648L27.1479 14.3817C26.9933 14.0746 27.0339 13.805 26.9345 13.4465C27.7701 13.363 30.2884 13.7854 30.8777 14.1179C31.0351 14.278 30.9873 14.8411 30.9503 15.0447L31.2488 15.1267C31.2723 15.1264 31.3028 15.1203 31.325 15.1183L31.4801 15.0736C31.368 14.7896 31.3326 14.8164 31.2041 14.5501C30.5839 13.2642 30.8477 14.7108 30.4256 13.1431C30.4028 13.1351 30.3677 13.0998 30.3567 13.1206L30.0131 13.0236C29.7733 12.9609 29.7607 12.958 29.5209 12.8881L29.818 13.6926C29.3554 13.384 29.891 12.9465 29.1954 12.8289L29.4617 13.6526C29.3293 13.5255 29.2833 13.3596 29.223 13.1442C29.0831 12.6435 29.3113 12.8109 28.818 12.723L29.0494 13.5744C28.7772 13.2542 28.9288 13.0216 28.6575 12.6593L28.5915 12.8535C28.5834 13.0797 28.6835 13.1189 28.6788 13.3838C28.6786 13.3954 28.6705 13.4272 28.6698 13.4362C28.669 13.4451 28.6645 13.4709 28.6575 13.4869C28.5521 13.3071 28.5685 13.2823 28.5033 13.0478L28.3195 12.9472C28.3526 13.1288 28.3925 13.2642 28.2904 13.4629C27.753 13.0306 28.3655 12.6394 27.7018 12.5207L27.9403 13.3696L27.5044 13.2589C27.4309 12.9264 27.4365 12.6434 27.1889 12.3891C27.0464 12.5797 27.0345 12.2826 27.1224 12.8048C27.1401 12.9103 27.2091 13.1028 27.2424 13.2088L26.5446 13.138C26.304 12.3429 26.6487 12.2999 25.8344 12.2366L26.0806 13.1017L25.2416 13.0015C25.2115 12.8546 25.185 12.561 25.1529 12.4561C25.0239 12.0338 25.2156 12.1978 24.7478 12.1061C24.8173 12.3298 24.9403 12.7459 24.9262 12.9959L24.0394 12.9017C22.9501 12.7373 21.3091 12.9327 20.4956 12.7794L20.5427 12.0129L20.2828 12.0047L20.2793 12.8344H19.8195C19.8955 12.4761 19.9336 12.2298 19.7539 12.0112L19.6899 12.1648C19.5606 12.6569 19.7676 11.6889 19.6471 12.3327C19.5547 12.8263 19.7622 12.902 18.9269 12.9264C19.1963 11.8922 18.9297 12.1282 18.8481 12.0641L18.7676 12.8807L18.2741 12.9708C18.325 12.7028 18.3105 12.4365 18.4292 12.2941C18.2643 12.1432 18.4259 12.15 18.1909 12.2005V12.2003Z" fill="#C9B272"/>
<path fill-rule="evenodd" clip-rule="evenodd" d="M30.1231 32.1467C29.5314 32.2296 28.9303 32.465 28.3139 32.6188C27.8325 32.739 27.0609 32.8645 26.5706 32.979C25.7828 32.9548 24.7481 33.2684 23.7534 33.2522C23.9875 32.8474 23.8748 32.7597 23.8832 32.2868L22.0867 32.297L22.2057 33.2825C20.9105 33.6229 17.8029 33.0886 16.3452 32.8866C15.1359 32.7191 15.1565 32.6139 14.5725 32.5087C14.6668 32.0012 14.5803 31.8799 14.7279 31.6084L13.3386 31.337C13.5979 31.528 13.5732 31.4467 13.6456 31.786C13.6481 31.7977 13.6554 31.8248 13.6569 31.8367L13.6216 32.1013C13.6983 32.361 13.8507 32.0069 13.5597 32.1995C13.5427 32.2107 13.4632 32.252 13.4408 32.2633L13.2765 32.3298C13.3283 32.5459 13.5113 33.0266 13.6213 33.205C14.2302 34.1927 19.6007 34.6798 20.5801 34.7104C23.4884 34.8009 26.9397 34.4617 29.116 33.6144L29.324 32.6216C29.555 32.8655 29.6828 32.2807 29.4281 33.0663L29.1223 33.5835C29.7809 33.4927 29.8415 33.209 30.1231 32.1467H30.1231Z" fill="#4D2D16"/>
<path fill-rule="evenodd" clip-rule="evenodd" d="M8.68823 25.5827L11.1039 25.85C11.1323 24.2879 10.8594 22.6602 10.8765 21.0398C10.8862 20.1058 11.2062 16.8907 11.0855 16.345L9.95729 16.4497L9.94467 21.289C9.63907 20.5537 9.67451 17.3485 9.88172 16.4374L9.28881 16.5278C9.28281 16.566 9.27571 16.5767 9.27379 16.6088L9.16292 20.216C9.03159 19.6499 9.02975 18.0443 9.05306 17.4595C9.0656 17.1446 9.1452 16.7332 9.01461 16.5142C8.87593 16.5793 8.76453 16.5165 8.75808 17.1739C8.75514 17.4756 8.77412 17.6868 8.77261 18.0056C8.76392 19.8238 8.93521 21.3872 8.96366 22.9396C9.00052 22.6338 8.72097 20.6106 8.67076 20.0331C8.56315 18.7974 8.69476 17.8038 8.66059 16.647C8.49714 16.9748 8.23987 19.1824 8.22216 19.7546C8.18942 20.8127 8.46726 21.9807 8.51179 23.0173L8.26384 20.9759C8.14027 22.2908 8.38533 24.3237 8.68823 25.5826V25.5827Z" fill="#DCA32C"/>
<path fill-rule="evenodd" clip-rule="evenodd" d="M7.32541 26.793C6.99271 26.929 6.62604 26.913 6.2697 27.0222C5.95348 27.1191 5.69553 27.3138 5.44369 27.4739L5.42981 28.1092C6.14478 28.5644 5.7139 28.5704 6.73989 28.9035C7.37771 29.1106 9.82242 29.3654 10.5729 29.4236C10.931 29.4514 11.3036 29.4313 11.6596 29.4562C11.7332 29.4613 12.0355 29.5189 12.0695 29.5376L12.3833 29.8511C12.6219 29.5454 12.2835 29.7899 12.5458 29.7425C12.6468 29.7243 12.793 29.7525 12.8981 29.7645L12.6676 29.5749C12.6537 29.5606 12.6194 29.5201 12.6086 29.506L12.5421 29.2548C12.5401 28.8133 12.5285 29.0065 12.4246 28.8897L14.1503 29.1694C14.1065 29.3929 14.1199 29.4741 14.0968 29.6558C14.0638 29.9154 13.9664 29.9542 14.0631 30.0511C14.4916 30.4805 19.9571 30.8172 21.2229 30.8357C21.4405 30.8389 22.1125 30.7652 22.2723 30.8607C21.7948 30.6852 21.2187 30.8048 20.7443 30.7414L20.7328 30.2122C20.768 29.8997 20.7917 29.8838 20.7555 29.5761C19.5707 29.0698 19.5996 28.7023 19.0976 28.0041L19.1987 29.4858L18.8463 29.4833L14.9681 29.0794L14.6605 28.9903L12.2565 28.57L11.8914 28.5229C11.9728 28.8705 12.0027 28.8248 12.1265 29.2084C11.2198 29.158 10.25 29.042 9.49159 28.8664C7.20891 28.338 8.02308 28.2565 7.5688 27.8271C7.6811 27.4731 7.53753 27.6279 7.92584 27.4532C7.63379 27.3347 7.71544 27.379 7.62224 27.0562C7.90641 27.0828 8.24825 27.0716 8.3726 27.2675C8.71527 27.3479 8.37591 27.1986 8.48976 27.5396C8.55985 27.7495 8.18502 27.5905 8.74601 27.8211C9.11313 27.972 11.4935 28.2483 11.9321 28.2858L11.5533 27.0324C11.5527 27.0516 11.5533 27.1428 11.5518 27.1679L11.493 27.4574C10.9091 27.3299 11.4265 27.3042 11.1259 26.8729C10.8672 27.1656 11.262 27.1458 11.0341 27.3899C10.6819 27.2445 11.0353 27.1481 10.7587 26.8228L10.7003 27.1973C10.6728 27.4132 10.7335 27.2535 10.6669 27.3676C10.4609 27.0666 10.6477 27.28 10.5728 27.0908C10.4384 26.7513 10.7493 27.0209 10.3916 26.7827C10.2931 26.9686 10.2984 27.0371 10.3899 27.3151C9.90627 27.2097 10.3519 27.1236 10.0245 26.7497C9.86549 26.9498 10.0076 26.8332 9.95963 27.1653C9.95771 27.1785 9.94914 27.2119 9.9473 27.2225C9.94546 27.2331 9.94322 27.2629 9.93264 27.2793C9.49094 26.7183 10.2711 26.8088 8.92203 26.6346C8.92942 26.6399 9.08014 26.9566 8.92301 27.1014C8.63513 26.9398 8.7307 26.8843 8.64762 26.602C8.31414 26.4972 7.43637 26.3907 7.36212 26.2711C7.31252 26.8212 7.7354 26.5421 7.32562 26.7929L7.32541 26.793Z" fill="#CAB98D"/>
<path fill-rule="evenodd" clip-rule="evenodd" d="M30.2538 31.0569L30.3115 31.3818C30.3114 31.3851 30.2811 31.6589 30.2789 31.6776C30.2463 31.9548 30.2894 32.3397 30.123 32.1467C29.8414 33.209 29.7808 33.4927 29.1222 33.5835L29.428 33.0663C29.6827 32.2807 29.5549 32.8655 29.3238 32.6216L29.1159 33.6144C26.9396 34.4617 23.4883 34.8009 20.58 34.7104C19.6006 34.6798 14.2301 34.1927 13.6212 33.205C13.5111 33.0266 13.3281 32.5459 13.2764 32.3298L13.4407 32.2633C13.4631 32.2521 13.5426 32.2106 13.5596 32.1995C13.8506 32.0069 13.6981 32.361 13.6215 32.1013L13.6568 31.8367C13.6552 31.8248 13.648 31.7977 13.6455 31.786C13.5731 31.4467 13.5978 31.528 13.3385 31.337L12.8686 31.2281C13.0222 31.5205 13.0273 31.2715 13.027 31.6313C12.8579 31.3876 13.03 31.4794 12.5943 31.4907C12.5788 31.508 12.5587 31.515 12.5516 31.5457C12.4704 31.8964 11.103 32.0179 11.6055 33.0325C12.1206 34.0726 13.864 34.1427 14.5598 34.3494C15.7855 34.7134 17.349 34.7503 18.7867 34.9113C20.5665 35.1107 24.5511 35.0021 26.5408 34.762C26.883 34.7207 27.2061 34.581 27.5616 34.517C27.2781 35.0069 27.3967 34.4116 27.2358 35.0213C27.4791 34.8877 27.5253 34.945 27.6625 34.7052C27.7593 34.5358 27.6935 34.4244 27.8312 34.2337C27.8576 34.8723 28.2439 35.3462 27.5454 35.542C27.6222 35.4246 27.5159 35.4705 27.7136 35.4851C28.2562 35.1883 27.8543 34.641 28.6445 34.5471C28.3945 34.9165 28.493 34.512 28.3995 34.9113C28.3625 35.0691 28.3986 35.3162 28.3786 35.5294C28.4979 35.3022 28.412 35.2787 28.5162 35.038C28.643 34.7454 28.6951 34.8465 28.7978 34.6251L28.8903 34.7593C29.0081 34.475 28.7671 34.6478 29.2094 34.5033L30.4732 34.2973C30.9572 34.1608 30.4659 34.4313 31.2412 34.0839L32.244 33.6147C32.4417 33.5046 32.21 33.6204 32.4958 33.4928C33.0218 33.2581 33.1271 33.1654 33.1175 32.4217C33.0277 32.204 32.2812 31.7819 32.0159 31.6418L30.9861 31.1782C30.8271 31.1071 30.9687 31.1651 30.8471 31.1102C30.5595 30.9804 30.7293 31.3887 30.6332 31.0339C30.6284 31.0159 30.6002 31.029 30.5848 31.0229L30.2537 31.057L30.2538 31.0569Z" fill="#888888"/>
<path fill-rule="evenodd" clip-rule="evenodd" d="M32.3238 25.5304L32.3883 25.7443C32.513 25.0687 32.9179 22.3197 32.626 21.8063C32.6494 22.2842 32.7078 22.5999 32.7506 23.0554C32.8332 23.9334 32.766 23.8604 32.8792 24.2545C32.8884 24.2867 32.9029 24.3166 32.9112 24.3424C32.9196 24.3684 32.9316 24.4019 32.946 24.4298L32.9753 23.317C32.7602 23.5072 32.9065 24.4696 32.919 24.7821C32.9632 24.6951 32.9572 24.7533 33.0087 24.5285C33.032 24.4266 33.0412 24.3599 33.0522 24.2562L32.9509 19.8853C33.3582 20.7053 33.3682 24.4384 33.2313 25.6403L33.3543 25.0803C33.379 24.7957 33.4285 24.5292 33.4537 24.2496L33.3022 19.4797C33.851 20.2738 33.6825 24.4679 33.6359 25.2213C33.6496 25.1966 33.6642 25.1308 33.6689 25.1433C33.6737 25.1559 33.6934 25.0862 33.6993 25.0639C33.7675 24.8065 33.9163 23.6455 33.8078 23.4968L33.839 24.5803C33.8596 24.5551 33.8797 24.4861 33.8863 24.5C33.8927 24.5136 33.9186 24.4424 33.9265 24.4197C34.1143 23.8783 33.8725 24.753 33.983 24.2564C34.0256 24.0645 33.9997 24.1105 33.999 23.9359L33.9957 19.3878C33.9434 19.0186 33.9064 18.8612 33.8947 18.4699C34.495 19.0553 34.3815 22.6856 34.2504 23.5183C34.1107 24.4058 34.2931 24.204 34.4138 24.324C34.5343 23.5067 34.643 19.8886 34.5536 18.9274C34.5223 18.5908 34.4928 18.3813 34.4911 18.0331L34.6475 18.3684C34.8058 18.9433 34.8368 21.8273 34.8054 22.4146C34.7882 22.7372 34.7081 22.9387 34.6795 23.2473C34.6389 23.6835 34.718 23.6299 34.7281 24.0607C34.9293 23.8837 35.0123 24.0741 35.0524 22.986C35.0666 22.5997 35.0699 22.245 35.1125 21.7739C35.1943 20.8727 35.0097 19.9562 35.0689 19.2502L34.8073 16.5797L32.2635 16.3101C32.4674 17.3443 32.492 19.8015 32.4671 20.9478C32.4333 22.5021 32.3572 24.02 32.3239 25.5302L32.3238 25.5304Z" fill="#ECAC33"/>
<path fill-rule="evenodd" clip-rule="evenodd" d="M32.3239 25.5304L32.3286 25.878L34.0709 25.7036L33.7067 25.8764L33.8732 26.414C34.5106 26.3794 36.0628 25.8312 36.3652 25.9663L36.6254 25.2749C36.3887 25.3263 36.4856 25.1665 36.5613 24.8229C36.5954 24.6684 36.6755 24.3831 36.7098 24.3198C36.567 23.875 36.8329 23.4875 36.7868 22.8872C36.7504 22.4137 36.8038 22.0033 36.7705 21.4951C36.733 20.9217 36.8032 19.4516 36.426 18.7845C36.4815 19.455 36.8584 23.9016 36.3245 24.6191C36.4863 23.5296 36.5462 22.641 36.4862 21.4951C36.4415 20.6435 36.5068 19.3937 36.179 18.6264C36.1717 19.0786 36.2808 19.5356 36.3135 19.9901C36.4228 21.5079 36.4796 22.5427 36.2095 24.1601L36.1008 23.8004C36.0865 23.7174 36.0936 23.604 36.0929 23.5179L36.1838 23.5176C36.1834 24.3434 36.1665 23.8638 35.9603 24.0683C36.0245 23.5967 36.2618 21.3155 36.1142 20.8502C36.0206 20.5551 36.0848 20.6753 35.9093 20.4895C35.9093 21.8732 35.8738 23.29 35.7252 24.5886C35.361 24.1507 35.5824 23.8445 35.655 23.1563C35.8111 21.678 35.8872 19.2942 35.581 18.5658C35.5694 18.5383 35.541 18.5319 35.5318 18.4788C35.5225 18.4252 35.4991 18.4196 35.479 18.3926C35.5344 19.7085 35.5639 20.9379 35.5691 22.302C35.5714 22.9044 35.5184 23.4565 35.4321 23.987C35.3683 24.3791 35.3216 24.4881 35.2393 24.8229C35.0692 25.5143 35.129 25.3884 35.2055 25.5089L34.9291 25.6006C34.7722 25.3398 34.8352 25.1665 34.8998 24.871C35.0556 24.1586 35.0805 23.3967 35.0839 22.6037C35.0887 21.4893 35.224 20.3394 35.0687 19.2504C35.0096 19.9565 35.1942 20.873 35.1124 21.7741C35.0698 22.2451 35.0665 22.5998 35.0522 22.9862C35.0122 24.0742 34.9292 23.8839 34.728 24.0609C34.7179 23.6301 34.6388 23.6836 34.6794 23.2475C34.708 22.9389 34.788 22.7374 34.8053 22.4148C34.8366 21.8274 34.8057 18.9435 34.6474 18.3686L34.491 18.0333C34.4927 18.3815 34.5222 18.591 34.5535 18.9276C34.6429 19.8888 34.5342 23.5069 34.4137 24.3242C34.2931 24.2042 34.1106 24.406 34.2503 23.5184C34.3814 22.6857 34.4949 19.0555 33.8946 18.4701C33.9063 18.8614 33.9433 19.0188 33.9955 19.388L33.9989 23.9361C33.9996 24.1107 34.0255 24.0647 33.9829 24.2566C33.8724 24.7532 34.1142 23.8784 33.9264 24.4199C33.9186 24.4425 33.8926 24.5138 33.8861 24.5002C33.8796 24.4863 33.8594 24.5553 33.8389 24.5805L33.8076 23.497C33.9162 23.6457 33.7673 24.8066 33.6992 25.0641C33.6933 25.0864 33.6736 25.1561 33.6688 25.1435C33.6641 25.131 33.6495 25.1969 33.6358 25.2215C33.6824 24.4681 33.8508 20.274 33.302 19.4798L33.4536 24.2497C33.4284 24.5294 33.3789 24.7958 33.3541 25.0804L33.2312 25.6405C33.3681 24.4386 33.3581 20.7055 32.9508 19.8855L33.0521 24.2564C33.0411 24.3601 33.0319 24.4268 33.0086 24.5286C32.9571 24.7535 32.9631 24.6953 32.9188 24.7823C32.9064 24.4698 32.7601 23.5074 32.9752 23.3172L32.9459 24.43C32.9315 24.4021 32.9195 24.3686 32.9111 24.3426C32.9028 24.3167 32.8883 24.2869 32.879 24.2547C32.7659 23.8607 32.833 23.9336 32.7505 23.0556C32.7077 22.6001 32.6493 22.2844 32.6259 21.8065C32.9177 22.3199 32.5129 25.0689 32.3882 25.7445L32.3237 25.5306L32.3239 25.5304Z" fill="#997418"/>
<path fill-rule="evenodd" clip-rule="evenodd" d="M6.96072 25.2782L8.49112 25.5403C7.97998 22.9946 7.78987 19.0853 8.45728 16.5727C6.71309 16.9375 6.96774 16.5973 6.70484 17.8022C6.15806 20.308 6.37479 22.8118 6.96072 25.2782V25.2782Z" fill="#C89627"/>
<path fill-rule="evenodd" clip-rule="evenodd" d="M31.1079 28.6285L28.6343 29.0592L28.3826 29.1218C27.8123 29.139 27.1279 29.2923 26.5231 29.3636C25.818 29.4466 25.1499 29.5295 24.4754 29.4966L24.13 29.5311L24.2704 28.0099C24.1942 28.1052 24.2574 28.0099 24.1463 28.1894C23.7787 28.783 23.9694 28.5328 23.9943 28.6654C24.0201 28.8024 24.0887 29.2533 24.1102 29.5351C23.6732 29.509 22.8996 29.3718 22.5491 29.6679L23.7773 29.7306C23.6796 29.9513 23.6865 30.0046 23.6558 30.3249L23.5662 30.6965C25.4942 30.9073 26.3521 30.4331 27.3756 30.4005L27.1372 29.9194C27.1999 29.6072 27.1185 30.0626 27.2263 29.6999C27.2822 29.5118 27.297 29.7372 27.2093 29.4155L31.136 28.7197C30.9389 29.3445 31.181 28.9971 31.0596 29.5622C32.4983 29.5888 35.8826 29.3062 37.1668 28.7247L37.7487 28.4774C37.7692 28.4687 37.7931 28.4584 37.8137 28.4498C37.8343 28.4411 37.8587 28.4317 37.8793 28.423C38.3969 28.2042 38.5623 27.8484 38.2028 27.4669L38.0007 27.3033C37.4076 26.859 36.3892 26.852 36.1802 26.7164C35.8486 26.9582 36.1087 26.7091 35.4499 26.9291L35.3824 26.5117C35.3798 26.4785 35.372 26.4649 35.314 26.4363L35.1804 26.9961L34.6681 27.0991C34.7615 26.5446 34.8309 26.7263 34.7157 26.5956C34.6224 27.0052 34.7343 26.9749 34.4403 27.1916C34.3176 26.9961 34.4411 26.7947 34.4728 26.5994C34.2295 26.7564 34.3509 26.9062 34.1649 27.1935C34.0218 27.0161 34.0828 27.257 34.0952 26.9308C34.0994 26.8197 34.1415 26.7751 34.1897 26.6572C33.8361 26.7711 33.976 26.7886 33.8641 27.2718C33.6154 27.2317 31.9617 27.4112 31.6353 27.505C31.8214 27.9428 31.733 27.427 31.8166 27.8475C31.8655 28.0934 31.7623 28.0429 31.8702 28.2151C32.5938 28.2406 33.0361 28.0948 33.7352 27.9819C33.3195 27.3403 33.7653 27.398 34.4256 27.2759C34.6673 27.2312 35.6228 27.0015 35.7919 26.9092C35.9176 27.07 35.7885 27.0807 35.8983 27.2467C36.0276 27.4422 35.7959 27.2254 36.0267 27.3553C36.1623 27.4317 36.3788 27.3811 36.4925 27.7007C36.5601 27.8906 36.5303 27.9624 36.5216 28.1702C35.0691 28.9533 32.9984 29.1779 31.2215 29.1899C31.29 28.9338 31.3745 28.8203 31.4052 28.6039L31.1079 28.6286L31.1079 28.6285Z" fill="#B2AFAD"/>
<path fill-rule="evenodd" clip-rule="evenodd" d="M18.2041 10.5889L18.5016 10.5794C17.7243 10.5748 16.4178 10.9141 15.6019 11.1004C15.3846 11.15 14.8987 11.1866 14.7477 11.2655C14.6639 11.6629 14.7107 11.9421 14.574 12.2196C15.7503 12.1467 16.897 11.765 18.2009 11.6748C19.5395 11.5823 20.7768 11.5229 22.1641 11.4807L22.0988 10.5196L23.7243 10.5425C23.5608 10.9246 23.6808 11.1456 23.5436 11.5078C24.6521 11.6665 25.6 11.8081 26.7294 11.8305C26.6327 11.6483 26.6013 11.8294 26.6166 11.5051C26.6169 11.4996 26.6195 11.4769 26.6194 11.471L26.594 10.9208C27.8256 10.9638 29.0505 11.4963 30.1229 11.5331L30.0906 11.585L23.4923 10.3498C22.9181 10.3161 22.6218 10.3562 22.051 10.3304C20.9643 10.2812 21.2288 10.3554 20.6048 10.3554C20.6761 9.97082 20.6485 9.51593 20.7451 9.29071H20.5189C20.5836 9.6326 20.544 9.97755 20.4564 10.3221C20.0636 10.3465 19.586 10.4073 19.2494 10.4156C18.8155 10.4264 18.5214 10.36 18.2041 10.589L18.2041 10.5889Z" fill="#CAB98D"/>
<path fill-rule="evenodd" clip-rule="evenodd" d="M30.7194 30.7923L30.585 31.0228C30.6004 31.0289 30.6285 31.0158 30.6334 31.0338C30.7294 31.3887 30.5597 30.9803 30.8472 31.1101C30.9688 31.1651 30.8272 31.1071 30.9862 31.1781L32.0161 31.6417C32.2813 31.7818 33.0279 32.2039 33.1177 32.4216C33.1272 33.1653 33.0219 33.258 32.496 33.4927C32.2102 33.6204 32.4419 33.5045 32.2442 33.6146L31.2413 34.0838C30.4661 34.4312 30.9574 34.1608 30.4734 34.2972L29.2096 34.5033C28.7673 34.6477 29.0082 34.4749 28.8905 34.7593C29.0737 35.0483 28.818 35.2597 29.3404 35.2503L29.9674 35.0534C29.9734 35.0535 29.9973 35.058 30.0036 35.0594C30.0109 35.061 30.0349 35.0728 30.0427 35.0756L30.7493 35.0914C30.8525 35.6061 30.6679 35.4056 30.8604 35.6181C31.2379 35.1828 30.7907 35.1811 31.189 34.6748C31.1991 34.6994 31.2039 34.7326 31.2067 34.7525C31.3315 35.6048 31.0142 35.2586 31.3194 35.621C31.6398 35.3252 31.4395 35.4775 31.5347 35.0609C31.5523 34.9835 31.5576 34.956 31.6076 34.8095L31.6866 34.6C31.9842 34.5056 32.0334 34.5563 32.1915 34.5792L32.4047 34.5413C32.4101 34.5393 32.4333 34.5298 32.4386 34.528C32.4438 34.5262 32.4671 34.5197 32.4721 34.5181C32.4769 34.5166 32.5 34.512 32.5045 34.5105L33.6846 34.278C34.1591 34.4891 33.6365 34.2287 33.9639 34.6071L33.9314 34.0267C34.0864 34.0321 34.8618 34.2192 34.9481 33.5036C35.0006 33.0693 34.9277 33.2367 35.1352 33.0277C35.1397 33.0231 35.2467 32.9658 35.3181 32.8805C35.3193 32.2377 35.1231 32.0879 34.6644 31.8398C34.2775 31.6306 34.3701 31.7928 34.0763 31.4937C33.7991 31.2114 34.0362 31.2907 33.6025 31.181L32.899 30.9532C32.8785 30.945 32.855 30.9337 32.8345 30.9256L31.1811 30.5622C30.9942 30.4883 31.0841 30.5442 31.0153 30.4427C30.5555 31.0202 30.914 30.8451 30.7194 30.7922L30.7194 30.7923Z" fill="#DCDCDC"/>
<path fill-rule="evenodd" clip-rule="evenodd" d="M30.0907 11.585C30.0087 11.3439 29.8373 10.9199 29.7378 10.6949C29.5618 10.2968 29.4967 10.3794 29.0454 10.2668C28.4246 10.1117 27.8182 9.94499 27.1901 9.8266C26.6989 9.73405 23.2594 9.30991 23.216 9.29068H20.7452C20.6486 9.5159 20.6762 9.97079 20.6049 10.3553C21.229 10.3554 20.9644 10.2811 22.0511 10.3304C22.6219 10.3562 22.9183 10.316 23.4924 10.3498L30.0908 11.585H30.0907Z" fill="#684716"/>
<path fill-rule="evenodd" clip-rule="evenodd" d="M23.3338 23.5512C23.0819 23.5445 22.8139 23.6585 22.6516 23.8455C22.258 24.2989 23.4607 25.129 24.2483 24.4383C23.9954 24.8854 24.0163 24.8978 23.4181 24.8318C24.0829 25.2919 23.9553 25.5174 24.2904 26.0223L24.4279 23.4101L24.1873 21.9367C24.0548 20.9599 24.167 21.2241 23.6338 20.8268C23.2173 20.5165 23.0917 20.4213 22.5111 20.3006C22.354 20.268 22.3989 20.2785 22.2878 20.2463C21.5952 20.0451 21.772 20.1546 21.2426 20.0585C21.013 22.4858 21.4695 22.0173 22.0047 22.1099C22.9479 22.2732 23.3131 23.0352 23.5168 23.1523C23.4208 23.5425 23.5002 23.3751 23.3337 23.5511L23.3338 23.5512Z" fill="#DAA536" stroke="#DAA536" stroke-width="0.0761944" stroke-miterlimit="22.9256"/>
<path fill-rule="evenodd" clip-rule="evenodd" d="M34.9291 25.6006L35.2055 25.5089C35.1291 25.3884 35.0692 25.5142 35.2393 24.8228C35.3216 24.4881 35.3683 24.3791 35.4322 23.987C35.5185 23.4565 35.5715 22.9044 35.5692 22.3019C35.564 20.9378 35.5345 19.7084 35.479 18.3926C35.4992 18.4196 35.5225 18.4251 35.5318 18.4788C35.541 18.5319 35.5695 18.5383 35.581 18.5658C35.8873 19.2942 35.8112 21.6779 35.6551 23.1563C35.5824 23.8444 35.361 24.1507 35.7253 24.5885C35.8738 23.2899 35.9094 21.8731 35.9094 20.4894C36.0849 20.6753 36.0206 20.5551 36.1143 20.8502C36.2618 21.3155 36.0246 23.5968 35.9603 24.0683C36.1665 23.8638 36.1835 24.3434 36.1838 23.5176L36.093 23.5178C36.0937 23.604 36.0866 23.7173 36.1008 23.8004L36.2095 24.1601C36.4797 22.5427 36.4228 21.5079 36.3135 19.9901C36.2808 19.5356 36.1717 19.0786 36.179 18.6264C36.5069 19.3936 36.4416 20.6435 36.4862 21.4951C36.5462 22.641 36.4863 23.5296 36.3245 24.619C36.8585 23.9015 36.4816 19.455 36.426 18.7845C36.8032 19.4517 36.733 20.9218 36.7706 21.4951C36.8038 22.0033 36.7505 22.4137 36.7868 22.8871C36.8329 23.4875 36.5671 23.8749 36.7098 24.3198C36.8695 22.4582 37.0416 23.124 37.0335 20.4879C37.0318 19.8972 36.8217 17.7397 36.5074 17.1168C36.3505 16.8057 35.8671 16.8153 34.9455 16.5986C35.7245 19.3442 35.4184 22.8286 34.9291 25.6006V25.6006Z" fill="#E4AB32"/>
<path fill-rule="evenodd" clip-rule="evenodd" d="M22.0867 32.297C21.5035 32.1475 19.8517 32.3467 19.1115 32.3104C18.9165 32.2214 19.1873 32.3387 19.1904 32.3465L19.0655 32.8812C18.9358 33.1552 19.2392 32.8568 18.9279 33.0611C18.7 32.9376 18.6061 32.8909 18.7389 32.2841C17.7503 32.0504 16.7296 32.0135 15.6765 31.8708C15.2208 31.8091 15.1149 31.6794 14.7279 31.6085C14.5803 31.88 14.6668 32.0013 14.5726 32.5088C15.1565 32.614 15.1359 32.7191 16.3452 32.8867C17.803 33.0886 20.9105 33.6229 22.2057 33.2826L22.0867 32.2971L22.0867 32.297Z" fill="#C9B272"/>
<path fill-rule="evenodd" clip-rule="evenodd" d="M21.8597 24.6311L21.3389 24.5913L21.6613 24.4027C21.8143 24.3257 21.8414 24.3652 21.9447 24.2253C22.2849 23.7649 21.0453 22.9652 21.3139 24.566C19.7839 24.2678 18.6736 26.9854 19.2453 27.2591C19.5086 27.3852 19.2343 26.6701 19.5537 27.3621C19.6568 27.5854 19.708 27.8445 19.7811 28.0157C19.7119 28.088 19.8506 28.0583 19.6455 27.9849C19.4788 27.9252 19.5949 27.9829 19.379 27.8821C19.5726 28.8328 20.0194 28.8712 20.698 29.2551C20.7032 28.663 20.5788 28.169 20.556 27.6049C20.5252 26.84 20.8709 26.8032 21.2517 26.4554L21.2558 24.7733C21.5343 25.3434 21.1827 26.0611 21.4061 26.435C21.8408 26.3734 21.6979 26.2976 21.6935 25.7258C21.6925 25.6033 21.7089 25.246 21.6999 25.1597C21.635 24.5313 21.8025 24.9179 21.492 24.764C21.5913 24.7351 21.8348 24.6489 21.8597 24.6311L21.8597 24.6311Z" fill="#E6D8AF"/>
<path fill-rule="evenodd" clip-rule="evenodd" d="M18.2041 10.5889C18.5215 10.36 18.8155 10.4263 19.2495 10.4156C19.5861 10.4072 20.0636 10.3465 20.4565 10.3221C20.544 9.97752 20.5837 9.63257 20.5189 9.29068H20.1541C20.1304 9.29913 20.0945 9.28194 20.0812 9.30929L18.8199 9.4276C17.397 9.60314 16.2482 9.87424 14.9085 10.0949L14.6029 11.15C15.7429 10.9478 16.9874 10.5481 18.2041 10.5889V10.5889Z" fill="#684716"/>
<path fill-rule="evenodd" clip-rule="evenodd" d="M28.6973 30.6073C28.7911 30.7476 28.7408 30.504 28.734 30.7467C28.7329 30.7877 28.7137 30.8849 28.7043 30.931C28.6396 31.2491 28.5935 31.1035 28.6289 31.5032C29.0113 31.4192 29.874 31.1649 30.2179 31.184L26.1052 32.0735C26.121 33.0136 26.138 32.732 25.9373 32.8456C26.3518 32.8378 26.3804 32.8445 26.5706 32.979C27.0609 32.8645 27.8325 32.739 28.3139 32.6188C28.9303 32.465 29.5314 32.2296 30.1231 32.1467C30.2895 32.3397 30.2464 31.9548 30.2789 31.6776C30.2811 31.6589 30.3114 31.3851 30.3115 31.3818L30.2539 31.0569C30.3549 30.7942 30.6737 30.4407 30.5875 30.1678C30.2844 30.0813 30.1809 30.2667 29.7129 30.3453L28.6973 30.6073V30.6073Z" fill="#857728"/>
<path fill-rule="evenodd" clip-rule="evenodd" d="M21.8651 30.4936C21.592 30.1266 21.7524 29.199 21.7269 28.3828C21.6778 26.812 21.9355 27.4449 21.7132 26.6067C20.6931 26.6292 20.708 27.3656 20.8018 28.2779C20.95 29.7197 20.9324 30.5562 20.9324 30.5561C20.9338 30.5436 20.9389 30.6089 20.9474 30.6406L22.4725 30.62C22.3912 29.7396 22.5776 27.6072 22.3886 26.851C22.2735 26.7877 22.1568 26.7194 21.982 26.6782C22.0841 27.2074 21.9945 28.0032 21.9892 28.5665L21.9122 30.4045C21.9051 30.3914 21.8847 30.4663 21.8651 30.4936H21.8651Z" fill="#E8D9CC"/>
<path fill-rule="evenodd" clip-rule="evenodd" d="M36.6556 16.6922C36.5305 16.3939 36.6327 16.2501 36.3858 16.0253C35.9184 15.9463 36.2649 16.0854 36.0703 15.6192C35.9671 15.3718 36.1753 15.4534 35.7647 15.3262C35.4861 15.24 34.9488 15.1728 34.5926 15.0551C34.7408 15.6872 34.7013 15.4993 34.5743 15.6488L34.4991 14.9857C34.4983 15.0092 34.4709 15.0177 34.4602 15.0752L34.3597 15.242C34.3517 15.2616 34.3394 15.2924 34.3334 15.3119C34.326 15.3358 34.3486 15.4555 34.3484 15.4861C34.1402 15.3718 34.1757 15.2151 34.1644 14.9406C33.691 14.9932 32.7119 14.8538 32.2372 14.795L32.2545 15.2565C31.9482 15.2751 31.7634 15.1697 31.3198 15.1657C31.537 15.4347 31.4168 15.3715 31.9816 15.5319C31.9584 15.5376 31.9685 15.2436 31.8622 15.754L31.8541 15.943C31.8547 15.9514 31.8607 15.9825 31.8614 15.9893C31.8623 15.9963 31.8649 16.0214 31.8701 16.0366C33.1129 16.3158 34.7618 16.0631 36.6555 16.6922L36.6556 16.6922Z" fill="#AE9551"/>
<path fill-rule="evenodd" clip-rule="evenodd" d="M21.8597 24.6311C22.224 24.6495 21.9702 24.6672 22.062 24.5366C22.0741 24.5566 22.0854 24.5679 22.0903 24.6008L22.1522 24.7242C22.1606 24.7389 22.1755 24.7665 22.1851 24.7821L22.4004 25.0664C22.2704 25.3066 22.239 26.3903 22.4046 26.5632C22.6274 26.7959 22.5573 26.6008 22.7086 26.9892C22.8989 27.4777 22.6993 28.6437 22.6435 29.2789C23.2956 28.8242 23.8175 28.7823 24.0682 27.8321C24.0536 27.8223 24.022 27.804 24.0169 27.8209C24.0155 27.8252 23.8488 27.8759 23.6866 27.6523L23.5975 27.5155C23.5227 27.8646 23.5255 27.7894 23.3233 28.012C23.3327 27.6446 23.3302 25.8191 23.1982 25.5374C23.2461 25.536 23.4941 25.761 23.6022 25.9931C23.7354 26.2793 23.7707 26.69 23.7748 27.049L24.1452 26.9658C24.1547 26.9641 24.1812 26.9623 24.1987 26.9578C24.4949 25.2777 22.6853 24.7025 22.4102 24.5324C22.0502 24.3099 22.3044 24.5851 22.1658 24.1601L21.8598 24.6311L21.8597 24.6311Z" fill="#D2CEA9"/>
<path fill-rule="evenodd" clip-rule="evenodd" d="M19.1779 32.1281C19.8633 32.0608 20.893 32.1775 21.6815 32.1641C22.5071 32.15 23.4522 32.1866 24.2683 32.1095L23.9279 32.1486L24.0065 31.2108C22.8064 31.0804 21.6315 31.2172 20.5134 31.2317C20.1139 31.2368 19.734 31.1437 19.3868 31.1649C19.3036 31.3965 19.3923 31.3204 19.4042 31.6236C19.4207 32.0402 19.6715 32.1606 19.1779 32.1281V32.1281Z" fill="#976819"/>
<path fill-rule="evenodd" clip-rule="evenodd" d="M26.7537 14.3647C27.7906 14.4828 29.9689 14.7024 30.9503 15.0446C30.9873 14.841 31.0351 14.2779 30.8777 14.1178C30.2884 13.7853 27.7702 13.3629 26.9345 13.4464C27.034 13.8049 26.9933 14.0745 27.1479 14.3816L26.7537 14.3647L26.7537 14.3647Z" fill="#857728"/>
<path fill-rule="evenodd" clip-rule="evenodd" d="M27.3757 30.4005C27.8941 30.3615 28.685 30.2044 29.1786 30.082C29.6031 29.9767 30.5694 29.7131 30.9717 29.7063L31.0596 29.5622C31.1809 28.9971 30.9388 29.3444 31.136 28.7197L27.2093 29.4155C27.2969 29.7372 27.2821 29.5118 27.2262 29.6999C27.1184 30.0626 27.1998 29.6072 27.1372 29.9194L27.3756 30.4005H27.3757Z" fill="#857728"/>
<path fill-rule="evenodd" clip-rule="evenodd" d="M7.27893 15.9275C7.596 15.9299 7.59061 15.8726 7.96043 15.8678L8.2232 15.9034C8.21324 15.9065 8.20238 15.9138 8.20108 15.9297C8.19969 15.9461 8.18222 15.9581 8.1807 15.963C8.12045 16.1567 8.16446 16.1898 8.23916 16.365C8.24786 16.3853 8.26394 16.4195 8.28023 16.4445C9.35305 16.2523 10.6355 16.0071 11.7709 16.0721L11.9969 15.1785L11.307 15.2733C11.1364 15.1133 11.2224 15.0663 11.2675 14.7217L11.0976 15.0547C11.009 15.2763 11.1848 15.0564 11.0339 15.272C10.5897 15.2744 10.8859 15.3094 10.8269 15.1564C10.8171 15.1309 10.8188 15.025 10.8112 14.9862C10.7512 14.676 10.9447 15.0466 10.7586 14.8072C10.5815 15.0184 10.7354 14.6984 10.664 14.9988C10.6386 15.1058 10.6454 15.1956 10.644 15.3055C9.95168 15.332 9.21389 15.4733 8.5782 15.5996C8.62898 15.4644 8.6818 15.2583 8.77762 15.1351C7.49207 15.3302 7.36192 15.2841 7.27893 15.9275V15.9275Z" fill="#D6CB70"/>
<path fill-rule="evenodd" clip-rule="evenodd" d="M26.7295 11.8305C26.9519 11.9608 28.2229 12.1451 28.574 12.2174C28.9115 12.2869 29.2091 12.3286 29.5639 12.4069C30.0173 12.5068 30.1486 12.628 30.5087 12.7109C30.3972 12.2226 30.2414 11.945 30.123 11.5331C29.0506 11.4963 27.8257 10.9638 26.5941 10.9207L26.6195 11.471C26.6196 11.4768 26.6169 11.4996 26.6167 11.5051C26.6014 11.8293 26.6328 11.6483 26.7295 11.8305H26.7295Z" fill="#857728"/>
<path fill-rule="evenodd" clip-rule="evenodd" d="M24.0394 12.9015L24.0711 11.9532C23.1245 12.0801 22.4413 11.9974 21.4987 11.9734C21.4612 11.9724 21.3542 11.9676 21.3165 11.968C21.2791 11.9685 21.2631 11.9689 21.2253 11.9702C21.1873 11.9717 21.1719 11.9737 21.1335 11.9759L20.5428 12.0127L20.4957 12.7792C21.3092 12.9324 22.9501 12.7371 24.0394 12.9016V12.9015Z" fill="#976819"/>
<path fill-rule="evenodd" clip-rule="evenodd" d="M24.3756 31.1661L24.3366 32.1402L26.9131 31.7885C26.9188 31.4841 27.0221 31.0609 27.0967 30.8198C26.6939 30.8347 26.1397 30.9723 25.6991 31.0098C25.3003 31.0437 24.8242 31.0912 24.3756 31.1661L24.3756 31.1661Z" fill="#A77819"/>
<path fill-rule="evenodd" clip-rule="evenodd" d="M15.4956 31.593C15.7702 31.6122 16.3374 31.7534 16.6935 31.8074C17.1765 31.8808 17.544 31.9049 18.046 31.9621L18.0095 31.0017C17.4995 31.0569 15.7929 30.7764 15.2612 30.6786L15.4956 31.593V31.593Z" fill="#A77826"/>
<path fill-rule="evenodd" clip-rule="evenodd" d="M15.2558 13.3627C15.52 13.2393 15.5603 13.2805 15.8666 13.2437C16.5605 13.1603 17.3092 12.9818 18.1376 12.9623L18.1909 12.2003C17.2299 12.2631 16.3359 12.3086 15.4015 12.5692L15.2558 13.3627V13.3627Z" fill="#A77819"/>
<path fill-rule="evenodd" clip-rule="evenodd" d="M13.0029 31.0269L15.2422 31.566L15.033 30.6103C14.4617 30.6209 14.4371 30.506 13.9531 30.4023L13.2365 30.2267C12.9906 30.1485 12.9362 30.1373 12.704 30.1007C12.7197 30.3548 12.9125 30.86 13.0029 31.0269V31.0269Z" fill="#997418"/>
<path fill-rule="evenodd" clip-rule="evenodd" d="M32.3286 25.878L32.0075 25.8245L31.9022 26.6005C32.7203 26.5755 33.0375 26.5588 33.8732 26.414L33.7067 25.8764L34.0709 25.7036L32.3286 25.878V25.878Z" fill="#D2CEA9"/>
<path fill-rule="evenodd" clip-rule="evenodd" d="M13.3036 11.5186L14.4278 11.1899C14.7643 11.0694 14.8894 10.4297 14.9457 10.1158C13.9813 10.3552 13.6946 10.0593 13.3036 11.5186Z" fill="#764917"/>
<path fill-rule="evenodd" clip-rule="evenodd" d="M24.8438 3.4719L23.5515 3.2844C23.3273 3.25326 23.0784 3.2417 22.876 3.22003C21.9222 3.11797 19.6851 3.18635 18.6992 3.38883C18.5891 3.41145 18.4807 3.42818 18.3567 3.4448C18.2377 3.46076 18.1341 3.49766 18.0139 3.50036C18.011 3.37124 17.9537 3.19892 17.9325 3.06951C17.7896 2.19774 17.5436 1.33104 17.3957 0.447468C17.303 -0.105925 17.3546 -0.0111755 16.6823 0.148237L14.9791 0.607902C13.8931 0.927666 12.8928 1.33683 11.9049 1.83083L11.1836 2.19093C11.0955 2.23673 11.0465 2.27343 10.9467 2.32401C10.7845 2.40631 10.6529 2.49146 10.4922 2.58091C10.1072 2.7951 9.74288 3.04551 9.37438 3.2844C9.284 3.34299 9.219 3.36046 9.16349 3.44341C9.20953 3.61593 9.5273 4.01946 9.64132 4.18928L10.6305 5.64747C10.795 5.89531 10.9881 6.14045 11.1271 6.40306C10.5374 6.7979 9.99615 7.26695 9.44382 7.70788L8.38222 8.72379C8.23889 8.89525 8.0665 9.02874 7.92774 9.2084L7.64798 9.52629C7.5456 9.63647 7.46808 9.73501 7.37455 9.8505C7.28115 9.96591 7.19877 10.0551 7.1063 10.1799L6.72771 10.6836C6.62766 10.828 6.38864 11.0816 6.34606 11.241C5.99629 11.0559 5.19131 10.49 4.84925 10.262C4.71936 10.1754 4.61763 10.1075 4.49067 10.0229L3.73349 9.52792C3.60212 9.44427 3.483 9.361 3.35796 9.27731C3.3275 9.32287 3.31795 9.32581 3.28517 9.37528C2.82485 10.0698 2.40303 10.7888 2.02787 11.5329L1.55543 12.5118C1.47411 12.6949 1.40826 12.8432 1.32952 13.0258C0.876587 14.0754 0.53535 15.1682 0.25604 16.278C0.158923 16.664 0.0321683 17.0863 0 17.4732C0.135368 17.5048 0.286004 17.534 0.423904 17.5615L3.50031 18.1562C3.49031 18.2768 3.45642 18.3986 3.43511 18.5463C3.29334 19.5292 3.18724 20.4702 3.18724 21.4858C3.18724 22.0278 3.22924 22.5196 3.27101 23.0525C3.27758 23.1358 3.26786 23.2187 3.27672 23.303C3.30481 23.5709 3.34955 23.8817 3.38772 24.1596C3.40784 24.3063 3.42752 24.4081 3.45112 24.58C3.46708 24.696 3.51807 24.8583 3.52872 24.9862C3.31799 24.9908 0.370507 25.6179 0.0284126 25.6976C0.205543 26.4579 0.396226 27.2428 0.613648 27.9866L1.39483 30.1081C1.46905 30.272 1.53828 30.4237 1.61381 30.6006L2.09094 31.5748C2.23268 31.8585 3.23451 33.6776 3.47181 33.8366C3.63625 33.7927 3.88024 33.5914 4.02876 33.4829C4.43829 33.1836 6.16869 32.012 6.43142 31.873C6.49213 31.9877 6.59161 32.1157 6.6753 32.2268L8.75771 34.6407C9.11519 34.9851 9.48819 35.3279 9.87507 35.6293C9.98725 35.7167 10.0807 35.8052 10.2039 35.8981C10.4121 36.055 11.068 36.6002 11.2693 36.654C11.1129 36.9495 10.3053 38.1285 10.04 38.5265C9.87609 38.7723 9.35294 39.4677 9.30571 39.6705L11.1078 40.7426C11.1995 40.788 11.2553 40.8252 11.3283 40.8637L11.9184 41.1558C11.975 41.1829 11.9761 41.1905 12.0499 41.2234C12.8865 41.5975 13.7365 41.9472 14.603 42.256C15.2203 42.476 16.8987 42.9499 17.5017 43.0001C17.5068 42.7681 17.625 42.3721 17.6645 42.1384C17.7152 41.8381 17.7912 41.5416 17.8397 41.2606L18.1847 39.4997L18.9645 39.6306C19.118 39.6529 19.223 39.6574 19.3711 39.6793C19.9938 39.7715 20.8695 39.8128 21.5143 39.8128L22.88 39.7556C23.4463 39.7286 24.0114 39.6305 24.5795 39.5484C24.6963 39.5315 24.8734 39.4807 24.9862 39.4713C25.0608 39.6268 25.6267 42.5512 25.6619 42.7228C25.7236 43.0234 25.6635 43.0025 26.2613 42.8523L27.8423 42.4412C28.7853 42.1626 29.8367 41.7784 30.7067 41.3499C30.8148 41.2966 30.912 41.2419 31.0287 41.1881C31.1021 41.1544 31.1347 41.1468 31.2066 41.1099L33.8651 39.5567C33.8201 39.3638 33.4125 38.8363 33.2633 38.6216L32.1404 36.9558C32.0743 36.8564 31.9281 36.6683 31.9015 36.5686C32.5239 36.1518 33.3609 35.5027 33.9012 34.9826L34.5935 34.3089C34.6245 34.2761 34.6336 34.2696 34.6638 34.2369L34.6905 34.2067C34.826 34.0511 34.9727 33.9291 35.1008 33.7632L35.6539 33.1211C35.9815 32.7189 36.4502 32.1696 36.6824 31.7307C36.7399 31.7691 36.7952 31.8065 36.8529 31.8448L37.4224 32.2145C37.8034 32.4693 39.2808 33.4881 39.6705 33.6943C39.8627 33.4073 40.042 33.1366 40.2274 32.8282C40.6828 32.0705 41.1067 31.2906 41.4625 30.4778C42.075 29.0788 42.5959 27.6395 42.8935 26.1318C42.9324 25.9352 43.0001 25.7388 43.0001 25.4984C42.7012 25.4736 40.8219 25.0649 40.4025 24.9941C40.1063 24.9441 39.804 24.8797 39.5282 24.8154C39.5453 24.6104 39.6106 24.3625 39.6345 24.1819C39.8119 22.8453 39.8127 22.2424 39.8127 20.8313C39.8127 19.6362 39.5068 18.3028 39.4997 17.9855C39.7622 17.9855 40.0993 17.883 40.3648 17.8261C40.6662 17.7614 40.9436 17.7059 41.2386 17.647C41.5246 17.5898 41.8017 17.5278 42.087 17.4709C42.3397 17.4205 42.7191 17.3026 42.9716 17.3026C42.9716 17.1304 42.8986 16.8452 42.8637 16.699C42.7297 16.1363 42.5769 15.5298 42.406 14.9939C42.1688 14.2503 41.9288 13.5572 41.6244 12.8728C41.4686 12.5225 41.3375 12.213 41.1693 11.8765C40.8482 11.2345 40.5066 10.6203 40.1382 10.0049C40.0435 9.84683 39.9619 9.71962 39.8642 9.56744C39.8015 9.4695 39.6289 9.18803 39.5566 9.13508C39.4184 9.17199 37.5816 10.4517 37.354 10.6035L36.7236 11.0261C36.6739 11.0589 36.6708 11.0683 36.6255 11.0987C36.5125 11.0231 36.4355 10.881 36.3579 10.7686L35.5765 9.75718C35.4848 9.64398 35.3892 9.55025 35.2963 9.4397C34.6555 8.67766 33.9193 7.97776 33.147 7.34876C32.8008 7.06688 32.17 6.5352 31.7591 6.31774C31.9689 5.92119 32.3523 5.41993 32.6143 5.01019L33.4779 3.71104C33.5665 3.57817 33.6514 3.46419 33.7227 3.32968C32.3127 2.38553 30.3265 1.32855 28.6069 0.790298C28.5494 0.772295 28.5292 0.759517 28.4611 0.736779L26.7847 0.250417C26.4798 0.173547 25.8788 9.15527e-05 25.5837 9.15527e-05C25.4676 9.15527e-05 25.4632 0.268011 25.4448 0.373579C25.4163 0.538544 25.3885 0.676647 25.3582 0.827569C25.2402 1.41517 25.1511 2.01147 25.0142 2.58952C24.9468 2.87377 24.91 3.18745 24.8438 3.47203L24.8438 3.4719ZM21.5 6.81729C29.6021 6.81729 36.1702 13.391 36.1702 21.5001C36.1702 29.6091 29.6021 36.1828 21.5 36.1828C13.3978 36.1828 6.82973 29.6091 6.82973 21.5001C6.82973 13.391 13.3978 6.81729 21.5 6.81729V6.81729Z" fill="#0D0E0E"/>
<path fill-rule="evenodd" clip-rule="evenodd" d="M22.3295 15.2675C22.2188 15.2539 22.113 15.2305 21.9958 15.2183C21.7026 15.1879 21.3992 15.198 21.1082 15.2444C21.0628 15.2516 20.9873 15.2708 20.9458 15.272L20.8122 14.6162C20.712 14.6251 20.5152 14.688 20.4178 14.7186C20.1708 14.796 19.9415 14.8982 19.717 15.0166C19.6018 15.0773 19.5049 15.1437 19.4015 15.2049C19.4165 15.2463 19.5516 15.433 19.5865 15.4843C19.6229 15.538 19.7576 15.7227 19.7743 15.7673C19.6431 15.8342 19.3316 16.1107 19.2381 16.2058C19.1609 16.2843 19.082 16.3725 19.0088 16.4645L18.8532 16.6719C18.8376 16.6939 18.8191 16.7266 18.8025 16.746C18.7678 16.7305 18.7014 16.6802 18.6645 16.656C18.6159 16.624 18.5708 16.5941 18.5243 16.5635C18.4758 16.5317 18.431 16.5024 18.384 16.4712C18.3426 16.4437 18.2856 16.3994 18.243 16.3788C18.2234 16.394 18.2073 16.4269 18.1937 16.4495C18.1777 16.4761 18.1618 16.5015 18.1467 16.5273C17.9888 16.7982 17.856 17.0892 17.763 17.3921C17.7404 17.4661 17.6631 17.7234 17.6643 17.7924L18.3212 17.922C18.253 18.366 18.2267 18.6919 18.2965 19.1359C18.3046 19.188 18.3203 19.2496 18.3254 19.3018C18.2866 19.323 17.7598 19.4216 17.6699 19.4388C17.682 19.601 17.848 20.058 17.9077 20.1987C18.0036 20.4248 18.135 20.6716 18.2591 20.8497C18.3171 20.8251 18.7346 20.5274 18.816 20.4781L19.0253 20.7549C19.0683 20.8056 19.1477 20.9042 19.1957 20.9478L19.3177 21.0697C19.4149 21.1586 19.7067 21.4084 19.7992 21.445C19.7911 21.4711 19.7274 21.5596 19.7078 21.5893C19.6563 21.6671 19.4431 21.9711 19.4318 22.0159C19.4725 22.0293 19.8508 22.2779 19.9565 22.298C19.9861 22.228 20.1093 21.3163 20.1373 21.272L20.2733 21.4348C20.2918 21.421 20.4188 21.1882 20.4297 21.1573C20.4136 21.1427 20.255 21.0627 20.2193 21.042C20.0815 20.9618 19.9566 20.8744 19.8366 20.7721C19.7577 20.7048 19.6567 20.6172 19.5853 20.5356C19.5601 20.5068 19.5343 20.4768 19.5081 20.448C19.4571 20.3919 19.4078 20.3292 19.3622 20.2651C19.2719 20.1381 19.1925 20.0124 19.116 19.8586C18.6337 18.8879 18.7501 17.6972 19.4317 16.842L19.5815 16.6684C19.7222 16.5084 19.9397 16.3307 20.1184 16.2179C20.553 15.9437 21.0749 15.7727 21.6248 15.7673C21.7296 15.7663 21.836 15.771 21.9381 15.7814C22.0381 15.7916 22.1336 15.8143 22.2273 15.824L22.7879 14.7669L23.6188 15.1263C23.6063 15.1663 23.1277 15.8773 23.0663 15.9713C23.0428 16.0072 23.0034 16.0584 22.9854 16.0958L23.1903 16.2212C23.3589 16.3296 23.5122 16.4551 23.6518 16.5938C23.7324 16.6739 23.816 16.7675 23.8863 16.8586C24.6854 17.8945 24.6817 19.2972 23.8895 20.3352L23.7352 20.5156C23.5384 20.7342 23.3016 20.9235 22.9844 21.0983C22.7015 21.2542 22.3364 21.3732 21.9655 21.4136C21.6586 21.447 21.343 21.4319 21.0424 21.3648C20.9519 21.3445 20.8632 21.3134 20.7792 21.2946C20.765 21.3074 20.5978 21.5879 20.5855 21.6176L20.8501 21.6375C20.8484 21.6462 20.851 21.6405 20.8443 21.6482L20.6444 21.8053C20.5679 21.8665 20.0381 22.2697 19.9952 22.3148C20.0225 22.3403 20.1469 22.3833 20.1897 22.3995C20.3281 22.4523 20.4704 22.4975 20.6146 22.5364C20.6773 22.5534 20.7824 22.583 20.848 22.5889C20.8558 22.5251 20.9641 21.9607 20.9779 21.9321L21.3069 21.9795C21.4264 21.9919 21.5486 21.9976 21.6702 21.997C21.7885 21.9964 21.908 21.9899 22.0234 21.977C22.139 21.9641 22.2503 21.937 22.3601 21.9251L22.4919 22.58C22.5517 22.582 22.8236 22.5001 22.8892 22.4788C23.0169 22.4375 23.1362 22.393 23.2532 22.3428C23.367 22.294 23.4842 22.2393 23.5899 22.1803C23.684 22.1278 23.8244 22.0575 23.9033 21.9899C23.8504 21.8995 23.5433 21.474 23.5308 21.429C23.6081 21.3915 23.742 21.2811 23.8095 21.2253C24.0369 21.0371 24.2299 20.8376 24.4011 20.597C24.4187 20.5725 24.4337 20.5512 24.4506 20.5274C24.467 20.5043 24.4828 20.4766 24.5016 20.4539C24.5521 20.4698 24.9929 20.7903 25.0633 20.819C25.1522 20.7203 25.3615 20.2861 25.4091 20.1695C25.4897 19.9722 25.6203 19.6156 25.6424 19.4039L24.9859 19.2764C24.9849 19.2431 25.0048 19.1582 25.0108 19.119C25.0646 18.7688 25.0629 18.4072 25.0075 18.0578C24.999 18.004 24.9841 17.9448 24.9781 17.8929L25.6355 17.7587C25.623 17.6504 25.5655 17.4656 25.532 17.3629C25.4525 17.1197 25.3514 16.8847 25.2346 16.6621C25.1809 16.5596 25.1079 16.4341 25.0445 16.3478C24.9723 16.3802 24.5429 16.698 24.4828 16.7208C24.4738 16.7014 24.4494 16.6674 24.4361 16.6492C24.4166 16.6222 24.404 16.6038 24.3839 16.5765C24.2091 16.3387 24.0146 16.1396 23.7864 15.954C23.7203 15.9001 23.65 15.846 23.5782 15.7991C23.5567 15.7849 23.5227 15.7645 23.5056 15.7479C23.5731 15.6284 23.8387 15.2649 23.8725 15.1877C23.7957 15.1084 23.319 14.8831 23.2201 14.8406C23.105 14.7913 22.9798 14.7471 22.8535 14.708C22.7966 14.6904 22.4984 14.6023 22.4571 14.6123L22.3296 15.2672L22.3295 15.2675Z" fill="#4D2D16" stroke="#857728" stroke-width="0.0761944" stroke-miterlimit="22.9256"/>
<path fill-rule="evenodd" clip-rule="evenodd" d="M20.8091 21.2424C20.819 21.2035 21.1702 20.6448 21.19 20.5929L23.5745 20.593L23.5518 20.622C23.336 20.828 23.0833 20.9935 22.813 21.1201C22.6668 21.1886 22.5051 21.2466 22.3397 21.2881C22.1897 21.3257 21.9509 21.3718 21.7836 21.3715C21.5921 21.3712 21.4358 21.3722 21.2534 21.3454C21.1642 21.3322 20.8828 21.2792 20.8091 21.2425L20.8091 21.2424ZM20.4651 21.1034C20.3919 21.0898 20.1349 20.9235 20.0666 20.8773C20.02 20.8459 19.754 20.6446 19.7291 20.5939L20.7416 20.5933C20.7297 20.6324 20.4963 21.0384 20.4651 21.1034ZM21.2317 20.5347C21.247 20.4928 21.308 20.4022 21.3328 20.3604C21.3746 20.2899 21.6203 19.8672 21.636 19.8628H23.5794V20.535L21.2317 20.5347V20.5347ZM20.4806 19.8042C20.4868 19.7845 20.6201 19.6719 20.6489 19.6424L21.3265 19.0038C21.3434 18.9887 21.3655 18.9567 21.3864 18.9567L21.6464 18.9572C21.6405 18.9831 21.339 19.5192 21.2982 19.5933C21.2597 19.6632 21.2229 19.7376 21.1804 19.8043L20.4806 19.8042V19.8042ZM20.3997 18.9568L20.5555 18.9577C20.5515 18.9811 20.4959 19.0765 20.4808 19.1055C20.4672 19.1314 20.4539 19.1567 20.4418 19.1796C20.4325 19.1973 20.4116 19.2396 20.3984 19.2512L20.3997 18.9568V18.9568ZM22.2067 18.9003C22.2175 18.8664 22.2744 18.7806 22.2949 18.7463C22.3266 18.6929 22.3527 18.6503 22.3841 18.5973L22.5617 18.2984L22.7747 18.2992L22.7749 18.9002L22.2066 18.9002L22.2067 18.9003ZM18.8798 18.462C18.8798 18.2956 18.9271 18.0528 18.9655 17.9022C19.0089 17.7329 19.0661 17.58 19.1367 17.4265C19.2075 17.2724 19.2828 17.1505 19.3724 17.0155C19.4158 16.95 19.6208 16.6866 19.667 16.6675L19.666 20.5309C19.642 20.5214 19.535 20.3946 19.5088 20.3623C19.2552 20.0506 19.0644 19.6854 18.964 19.2897C18.8749 18.9382 18.8792 18.801 18.8798 18.462V18.462ZM21.5396 18.2981L22.0109 18.2981C22.0038 18.3253 21.9439 18.4206 21.926 18.4512C21.8962 18.5024 21.869 18.5509 21.8387 18.6022C21.826 18.6237 21.6778 18.8958 21.6587 18.9003L21.1372 18.8989L21.5395 18.298L21.5396 18.2981ZM23.638 16.6672C23.6546 16.6752 23.6701 16.6921 23.6851 16.708L23.8034 16.8452C24.2005 17.3456 24.4278 17.9239 24.4261 18.6039C24.425 19.0379 24.3353 19.3839 24.1885 19.7263C24.118 19.8909 24.0357 20.0251 23.945 20.1636C23.9246 20.1946 23.6792 20.5283 23.6373 20.5289V19.8048L21.6664 19.8042C21.6699 19.7844 21.7697 19.6252 21.7897 19.5916C21.8316 19.5211 21.8745 19.4517 21.9168 19.378L22.1074 19.0583C22.1246 19.03 22.1505 18.9801 22.169 18.9568L22.8334 18.9557L22.8325 18.2413L22.5992 18.2412C22.606 18.2141 22.9815 17.5905 23.0373 17.4976C23.0552 17.4679 23.0874 17.4207 23.0977 17.3934L23.6375 17.392L23.6379 16.6671L23.638 16.6672ZM20.3984 17.3933L21.3882 17.3933C21.38 17.4249 21.1832 17.7844 21.1622 17.824L20.9911 18.1462C20.9735 18.1821 20.9492 18.2412 20.9268 18.2412L20.3984 18.2409V17.3933V17.3933ZM21.5722 18.2412C21.5833 18.1982 22.0958 17.4572 22.1232 17.3942L22.7024 17.3947C22.692 17.4147 22.5931 17.4976 22.5732 17.5153L21.8601 18.1583C21.7593 18.2498 21.7888 18.2413 21.6928 18.2412C21.6526 18.2412 21.6124 18.2413 21.5723 18.2412H21.5722ZM22.0361 18.0734C22.2114 17.923 22.4031 17.7408 22.5805 17.5849L22.6719 17.5006C22.7015 17.4745 22.7348 17.447 22.7622 17.4207C22.7961 17.3881 23.2833 16.9447 23.3049 16.935C23.2966 16.9614 23.1538 17.195 23.1289 17.2368L21.5435 19.8957C21.4222 20.0961 21.3089 20.2882 21.1917 20.4858C21.0755 20.6816 20.958 20.8782 20.8395 21.0758C20.7805 21.1744 20.7223 21.2725 20.6639 21.371C20.6379 21.415 20.499 21.6407 20.4891 21.6681L20.6984 21.6856C20.6865 21.7038 20.5631 21.7961 20.5362 21.8167L20.1222 22.1403C20.0966 22.1597 20.0621 22.1929 20.0336 22.205C20.0461 22.1188 20.1607 21.4267 20.1721 21.4078C20.2052 21.4299 20.2586 21.515 20.2856 21.5338C20.302 21.5173 20.3946 21.3427 20.4033 21.3265L20.7449 20.7092C20.8958 20.438 21.0483 20.1615 21.1998 19.887C21.2752 19.7504 21.3486 19.6098 21.4277 19.4739C21.5795 19.2133 21.7317 18.9203 21.8821 18.6517L22.0527 18.3459C22.0671 18.3217 22.1035 18.2651 22.1096 18.2414L21.8569 18.2408L22.0362 18.0736L22.0361 18.0734ZM22.17 17.334C22.1816 17.3071 22.2069 17.2743 22.225 17.2466C22.2692 17.179 22.5986 16.667 22.6177 16.663H23.5794L23.5794 17.3353L23.1375 17.3333L23.4604 16.7895C23.4491 16.7782 23.4328 16.7627 23.4177 16.755L22.873 17.2421C22.8091 17.3012 22.7883 17.3355 22.7371 17.3356C22.5767 17.3359 22.3018 17.3444 22.1699 17.334L22.17 17.334ZM21.4203 17.3311C21.4134 17.3367 21.421 17.3341 21.4087 17.3367L21.1537 17.3372C20.9194 17.3372 20.548 17.3271 20.3439 17.338L20.3455 18.2968L20.9058 18.2978C20.8955 18.3333 20.8466 18.4163 20.8267 18.4527C20.8007 18.5 20.5975 18.896 20.5807 18.9003L20.343 18.9005C20.3274 18.9957 20.3586 19.3257 20.3321 19.3823C20.3071 19.4359 20.2732 19.4918 20.2449 19.5448L19.8207 20.3458C19.8325 20.3587 19.8471 20.3712 19.8657 20.3793L20.2718 19.9973C20.2911 19.9801 20.3112 19.9641 20.3286 19.9461C20.409 19.8626 20.4045 19.8622 20.4728 19.8627L21.1449 19.8628L20.9596 20.2027C20.9475 20.2245 20.7868 20.5304 20.7679 20.5349L19.725 20.5328L19.7256 16.663L21.7765 16.6643L21.4203 17.331L21.4203 17.3311ZM22.6524 16.6049C22.6557 16.5805 22.9283 16.177 22.9472 16.1483C23.0447 16.1676 23.5547 16.5426 23.5749 16.6047C23.2974 16.6098 22.9343 16.6072 22.6524 16.6049V16.6049ZM19.7299 16.605C19.7408 16.5718 19.9056 16.4417 19.9467 16.4098C20.3878 16.0671 20.8638 15.8873 21.4353 15.8328C21.5832 15.8187 22.0823 15.8267 22.1938 15.8802C22.1861 15.9108 21.8312 16.5667 21.8121 16.6051L19.7299 16.605V16.605ZM19.9596 20.212C19.9616 20.1933 20.2759 19.6064 20.3128 19.5393C20.4356 19.3161 20.5483 19.0957 20.6695 18.8689C20.9095 18.4198 21.1463 17.9708 21.385 17.5245C21.6224 17.0804 21.8619 16.6189 22.1007 16.1804L22.2801 15.8434C22.3029 15.798 22.7952 14.8649 22.8171 14.8391L23.5328 15.154C23.525 15.1781 23.4016 15.3578 23.3764 15.3963C23.3244 15.4752 23.2754 15.5511 23.2212 15.6325L21.0294 18.9569L21.2886 18.9575C21.2821 18.9736 20.9934 19.2399 20.9566 19.275L20.7906 19.4324C20.6936 19.5151 20.5552 19.6586 20.4568 19.7454C20.3063 19.8783 20.1107 20.0826 19.9596 20.212ZM22.4569 14.6126C22.4982 14.6025 22.7964 14.6906 22.8534 14.7082C22.9796 14.7473 23.1049 14.7915 23.2199 14.8409C23.3189 14.8833 23.7955 15.1087 23.8723 15.188C23.8386 15.2652 23.573 15.6287 23.5054 15.7482C23.5226 15.7647 23.5566 15.7851 23.5781 15.7993C23.6498 15.8463 23.7201 15.9004 23.7863 15.9543C24.0145 16.1399 24.2089 16.3389 24.3837 16.5768C24.4038 16.6041 24.4165 16.6225 24.436 16.6494C24.4493 16.6677 24.4736 16.7017 24.4826 16.721C24.5427 16.6982 24.9722 16.3805 25.0443 16.348C25.1077 16.4343 25.1807 16.5598 25.2345 16.6623C25.3512 16.8849 25.4523 17.1199 25.5319 17.3632C25.5654 17.4658 25.6229 17.6507 25.6353 17.7589L24.9779 17.8931C24.9839 17.945 24.9988 18.0043 25.0073 18.0581C25.0628 18.4075 25.0645 18.7691 25.0106 19.1193C25.0046 19.1584 24.9847 19.2434 24.9858 19.2767L25.6422 19.4041C25.6202 19.6158 25.4895 19.9725 25.4089 20.1697C25.3613 20.2863 25.152 20.7205 25.0631 20.8192C24.9927 20.7906 24.5519 20.47 24.5014 20.4541C24.4826 20.4769 24.4668 20.5045 24.4504 20.5276C24.4335 20.5514 24.4185 20.5727 24.4009 20.5973C24.2297 20.8378 24.0367 21.0374 23.8093 21.2255C23.7419 21.2813 23.608 21.3917 23.5306 21.4293C23.5431 21.4742 23.8502 21.8997 23.9031 21.9902C23.8242 22.0578 23.6838 22.1281 23.5897 22.1806C23.484 22.2396 23.3669 22.2943 23.253 22.3431C23.136 22.3932 23.0167 22.4377 22.889 22.4791C22.8234 22.5003 22.5516 22.5822 22.4917 22.5803L22.3599 21.9253C22.2502 21.9373 22.1389 21.9644 22.0232 21.9773C21.9079 21.9901 21.7883 21.9966 21.67 21.9973C21.5484 21.9978 21.4262 21.9922 21.3067 21.9798L20.9777 21.9324C20.9639 21.9609 20.8556 22.5253 20.8479 22.5891C20.7823 22.5833 20.6772 22.5536 20.6145 22.5367C20.4702 22.4977 20.3279 22.4525 20.1895 22.3998C20.1468 22.3835 20.0223 22.3405 19.995 22.315C20.038 22.2699 20.5678 21.8667 20.6442 21.8056L20.8441 21.6484C20.8509 21.6407 20.8483 21.6465 20.85 21.6377L20.5853 21.6178C20.5977 21.5882 20.7649 21.3076 20.7791 21.2949C20.863 21.3137 20.9517 21.3448 21.0422 21.365C21.3428 21.4321 21.6584 21.4473 21.9653 21.4138C22.3362 21.3734 22.7013 21.2545 22.9843 21.0986C23.3014 20.9237 23.5383 20.7345 23.735 20.5159L23.8893 20.3354C24.6816 19.2975 24.6852 17.8947 23.8861 16.8589C23.8158 16.7677 23.7322 16.6742 23.6516 16.594C23.5121 16.4553 23.3587 16.3298 23.1901 16.2215L22.9853 16.096C23.0032 16.0586 23.0427 16.0075 23.0662 15.9715C23.1275 15.8775 23.6061 15.1666 23.6186 15.1265L22.7878 14.7671L22.2272 15.8243C22.1334 15.8145 22.0379 15.7918 21.9379 15.7817C21.8358 15.7713 21.7294 15.7665 21.6246 15.7675C21.0747 15.7729 20.5529 15.9439 20.1182 16.2182C19.9395 16.3309 19.7221 16.5086 19.5814 16.6686L19.4315 16.8422C18.7499 17.6974 18.6335 18.8881 19.1159 19.8588C19.1923 20.0127 19.2717 20.1384 19.362 20.2653C19.4076 20.3295 19.4569 20.3921 19.508 20.4483C19.5341 20.477 19.5599 20.507 19.5851 20.5358C19.6566 20.6174 19.7575 20.705 19.8365 20.7724C19.9564 20.8747 20.0813 20.962 20.2192 21.0422C20.2549 21.063 20.4134 21.1429 20.4295 21.1575C20.4186 21.1885 20.2916 21.4213 20.2731 21.4351L20.1371 21.2722C20.1092 21.3165 19.986 22.2283 19.9564 22.2983C19.8507 22.2782 19.4723 22.0296 19.4317 22.0161C19.4429 21.9714 19.6562 21.6673 19.7076 21.5896C19.7272 21.5599 19.791 21.4713 19.799 21.4453C19.7065 21.4086 19.4147 21.1588 19.3175 21.07L19.1956 20.948C19.1475 20.9044 19.0681 20.8058 19.0252 20.7552L18.8159 20.4784C18.7344 20.5276 18.3169 20.8254 18.2589 20.8499C18.1348 20.6718 18.0034 20.4251 17.9076 20.199C17.8478 20.0582 17.6818 19.6012 17.6697 19.4391C17.7596 19.4218 18.2864 19.3233 18.3252 19.302C18.3202 19.2499 18.3045 19.1882 18.2963 19.1361C18.2266 18.6921 18.2528 18.3662 18.321 17.9222L17.6641 17.7927C17.663 17.7237 17.7402 17.4663 17.7629 17.3924C17.8559 17.0894 17.9886 16.7985 18.1465 16.5276C18.1616 16.5017 18.1775 16.4763 18.1935 16.4497C18.2072 16.4271 18.2232 16.3942 18.2428 16.3791C18.2854 16.3996 18.3424 16.4439 18.3838 16.4714C18.4309 16.5027 18.4756 16.532 18.5241 16.5638C18.5706 16.5943 18.6158 16.6242 18.6643 16.6563C18.7012 16.6805 18.7676 16.7308 18.8023 16.7463C18.8189 16.7268 18.8374 16.6942 18.853 16.6722L19.0086 16.4647C19.0818 16.3728 19.1608 16.2846 19.238 16.2061C19.3315 16.111 19.6429 15.8345 19.7742 15.7675C19.7574 15.723 19.6228 15.5382 19.5864 15.4846C19.5515 15.4332 19.4163 15.2465 19.4013 15.2052C19.5048 15.1439 19.6017 15.0776 19.7168 15.0169C19.9414 14.8985 20.1707 14.7963 20.4176 14.7188C20.5151 14.6882 20.7119 14.6253 20.8121 14.6165L20.9456 15.2723C20.9871 15.2711 21.0627 15.2518 21.1081 15.2446C21.3991 15.1982 21.7025 15.1881 21.9956 15.2186C22.1129 15.2307 22.2186 15.2542 22.3294 15.2678L22.4568 14.6129L22.4569 14.6126ZM22.2829 15.1993C22.0386 15.1424 21.788 15.1426 21.5396 15.1426C21.4902 15.1426 21.4457 15.1441 21.3986 15.1491C21.3557 15.1538 21.3046 15.1555 21.2581 15.1619C21.2125 15.1683 21.1634 15.1741 21.1237 15.1808C21.0772 15.1885 21.0389 15.1994 20.9891 15.1994C20.9891 15.1413 20.9375 14.938 20.926 14.871C20.9174 14.821 20.9035 14.7624 20.8932 14.7109C20.8821 14.6554 20.8711 14.6003 20.8586 14.5469C20.781 14.5469 20.5167 14.6249 20.426 14.6533C20.2238 14.7167 20.0291 14.7913 19.8411 14.8854C19.8085 14.9017 19.7828 14.9146 19.7503 14.9308C19.7172 14.9474 19.6917 14.9631 19.6613 14.9781C19.632 14.9926 19.6037 15.0098 19.5745 15.0274L19.406 15.1313C19.3899 15.1421 19.3378 15.1779 19.3209 15.1824C19.3216 15.2151 19.3895 15.2995 19.4083 15.3276L19.5978 15.609C19.6138 15.633 19.6875 15.7285 19.6897 15.7554C19.6581 15.7639 19.6186 15.8018 19.5917 15.822C19.5794 15.8311 19.5699 15.8363 19.5584 15.8454C19.5147 15.8796 19.4762 15.9114 19.4326 15.9466L19.3423 16.0264C19.3293 16.0385 19.3239 16.0398 19.3109 16.0518C19.2906 16.0706 19.2741 16.0888 19.2543 16.1086C19.2435 16.1194 19.2369 16.1265 19.2259 16.137C19.2196 16.1431 19.2174 16.1445 19.211 16.1505L19.0866 16.2814C19.0352 16.3428 18.9786 16.4007 18.9302 16.4655C18.9129 16.4885 18.8989 16.5063 18.8807 16.5295C18.8468 16.5729 18.8131 16.615 18.7875 16.6633C18.7219 16.6285 18.5762 16.5262 18.5061 16.4795L18.2938 16.3399C18.274 16.3259 18.2461 16.3005 18.2201 16.2944L18.1679 16.3785C18.1492 16.4074 18.1337 16.4318 18.1155 16.4622L18.0158 16.6348C18.0001 16.6649 17.9873 16.6952 17.9694 16.7246C17.9517 16.7536 17.9399 16.7863 17.9252 16.8165C17.9177 16.8317 17.9098 16.8466 17.9023 16.8618C17.7688 17.1328 17.679 17.4335 17.6118 17.7288C17.6038 17.7642 17.5911 17.8041 17.5903 17.8435C17.642 17.8446 17.7038 17.8616 17.7537 17.8731C17.8078 17.8855 18.1936 17.9638 18.2486 17.9684C18.2486 18.026 18.2133 18.1896 18.209 18.2693C18.1903 18.6147 18.1796 18.7498 18.2298 19.0993C18.2377 19.154 18.253 19.202 18.2542 19.2564C18.218 19.2738 17.9697 19.3177 17.9259 19.3252L17.6806 19.3751C17.6547 19.3803 17.6194 19.3906 17.596 19.3926C17.6133 19.4669 17.6279 19.5421 17.6471 19.6139L17.7062 19.8271C17.7264 19.8978 17.7513 19.9616 17.7753 20.0303C17.8325 20.194 17.9074 20.3528 17.9855 20.5067L18.2133 20.8918C18.2252 20.9108 18.2322 20.916 18.2428 20.936C18.3358 20.8737 18.4279 20.8107 18.5209 20.7487C18.5436 20.7336 18.5662 20.7185 18.589 20.7034C18.6135 20.6871 18.6337 20.6715 18.6593 20.6546C18.6936 20.6318 18.7702 20.5707 18.8046 20.5615C18.8195 20.5838 18.8347 20.6055 18.8516 20.628C18.9151 20.713 18.9788 20.8047 19.0528 20.8808C19.0642 20.8926 19.0697 20.8964 19.0803 20.91L19.2771 21.1104C19.296 21.1294 19.3136 21.1499 19.3347 21.1663C19.3985 21.2155 19.4554 21.273 19.5195 21.3219C19.5412 21.3385 19.5606 21.3543 19.5835 21.3714C19.6281 21.4044 19.6691 21.4378 19.7181 21.4637L19.5332 21.744C19.5165 21.7689 19.5044 21.7872 19.4878 21.8121C19.4584 21.8562 19.3566 21.9999 19.3493 22.0311C19.3624 22.04 19.3738 22.0458 19.3879 22.0549C19.4029 22.0646 19.4149 22.0734 19.429 22.0819C19.4463 22.0923 19.4525 22.0981 19.4701 22.1089C19.4862 22.1186 19.4972 22.125 19.5128 22.1343C19.5427 22.1524 19.5684 22.1686 19.599 22.1843L19.7748 22.2808C19.8681 22.3274 19.9561 22.3708 20.0545 22.4097C20.3054 22.5089 20.5128 22.5758 20.7791 22.6383C20.7971 22.6425 20.818 22.6453 20.836 22.6496C20.8525 22.6535 20.8746 22.6595 20.8926 22.661C20.9097 22.6254 21.0028 22.0901 21.0232 22.0028C21.079 22.0028 21.2435 22.0391 21.324 22.0425C21.6561 22.0565 21.6371 22.0689 21.9931 22.0421C22.0711 22.0362 22.2594 21.9983 22.3112 21.9971L22.3781 22.3274C22.3885 22.373 22.4327 22.6248 22.4474 22.6554C22.522 22.6379 22.5963 22.6222 22.6687 22.6043C22.7428 22.586 22.8085 22.5657 22.8811 22.5443C23.0751 22.4872 23.3443 22.3803 23.5123 22.2904C23.6447 22.2195 23.7738 22.146 23.901 22.0663C23.9225 22.0529 23.9637 22.0198 23.985 22.0142C23.9824 21.9826 23.8264 21.7676 23.8001 21.7282C23.7361 21.632 23.6737 21.5411 23.6106 21.4468C23.6266 21.4425 23.631 21.4355 23.6458 21.4253L23.9921 21.1475C24.1088 21.0447 24.3381 20.7895 24.422 20.6695C24.4518 20.6268 24.4939 20.5797 24.5184 20.5333L24.9383 20.8113C24.9709 20.833 25.0469 20.8932 25.0802 20.9021C25.1016 20.8864 25.1183 20.8477 25.1335 20.825C25.1532 20.7955 25.1671 20.7715 25.1855 20.7408C25.204 20.7101 25.2186 20.6864 25.2367 20.6557C25.45 20.2929 25.5917 19.8951 25.6885 19.4847C25.6969 19.4489 25.71 19.3915 25.71 19.353C25.6747 19.353 25.6593 19.3451 25.6273 19.3392C25.5387 19.323 25.1 19.2322 25.0518 19.2281C25.0802 19.1689 25.1086 18.7901 25.1086 18.7118C25.1086 18.5905 25.1149 18.464 25.102 18.3438C25.0941 18.2703 25.0709 17.9916 25.0461 17.9401C25.073 17.9379 25.1013 17.9281 25.1262 17.9238C25.1562 17.9186 25.1823 17.912 25.2065 17.9076C25.2634 17.8973 25.3156 17.8873 25.3718 17.8743C25.4248 17.8619 25.6515 17.8096 25.7043 17.8096C25.7043 17.7678 25.6927 17.7326 25.684 17.6937C25.6748 17.6523 25.6676 17.623 25.6578 17.5838C25.623 17.4448 25.5804 17.2995 25.5284 17.1685L25.4908 17.0699C25.4782 17.034 25.4657 17.0074 25.4514 16.9731C25.4377 16.9401 25.4242 16.9083 25.4093 16.8791C25.3939 16.8489 25.3818 16.8184 25.3657 16.7864C25.3495 16.7539 25.3366 16.7282 25.3204 16.6956C25.2469 16.5471 25.1551 16.4036 25.0631 16.2663C25.0259 16.275 24.9902 16.3113 24.9577 16.3311L24.5014 16.6408C24.4588 16.5602 24.2947 16.3626 24.2277 16.2904L24.0319 16.0889C23.9847 16.0411 23.93 16.0018 23.8815 15.9557C23.8038 15.8816 23.6774 15.7929 23.5879 15.7329C23.6392 15.6359 23.9459 15.2121 23.9567 15.1655C23.9394 15.1609 23.9302 15.1517 23.9171 15.1428L23.7052 15.0141C23.674 14.9968 23.6511 14.9813 23.6181 14.9651L23.3912 14.8515C23.1132 14.7226 22.8257 14.6241 22.5255 14.5597C22.4872 14.5515 22.4502 14.5414 22.4077 14.5414C22.4017 14.6137 22.3762 14.7119 22.3617 14.7848L22.3145 15.0325C22.3042 15.0837 22.284 15.1448 22.2829 15.1995L22.2829 15.1993Z" fill="#684716"/>
<path fill-rule="evenodd" clip-rule="evenodd" d="M23.6376 17.3921L23.0978 17.3935C23.0875 17.4208 23.0553 17.468 23.0374 17.4977C22.9816 17.5906 22.6061 18.2142 22.5992 18.2414L22.8325 18.2414L22.8334 18.9558L22.1691 18.9569C22.1506 18.9802 22.1247 19.0301 22.1075 19.0585L21.9168 19.3781C21.8746 19.4518 21.8317 19.5212 21.7898 19.5917C21.7698 19.6253 21.67 19.7845 21.6664 19.8043L23.6374 19.8049V20.529C23.6793 20.5284 23.9247 20.1947 23.945 20.1637C24.0358 20.0252 24.1181 19.8911 24.1886 19.7264C24.3354 19.384 24.4251 19.038 24.4262 18.604C24.4279 17.924 24.2006 17.3457 23.8035 16.8453L23.6852 16.7081C23.6702 16.6923 23.6547 16.6753 23.6381 16.6673L23.6376 17.3922L23.6376 17.3921Z" fill="#D69A34"/>
<path fill-rule="evenodd" clip-rule="evenodd" d="M20.3455 18.2968C20.3336 18.2897 20.3391 18.2965 20.3376 18.2752C20.3371 18.2686 20.3381 18.2541 20.3381 18.2465C20.3393 18.0995 20.3326 17.3861 20.34 17.3362C20.3826 17.32 21.2882 17.3331 21.4204 17.3311L21.7765 16.6644L19.7256 16.6631L19.725 20.5329L20.768 20.5351C20.7868 20.5305 20.9476 20.2247 20.9596 20.2029L21.1449 19.8629L20.4729 19.8628C20.4046 19.8624 20.4091 19.8627 20.3286 19.9462C20.3113 19.9642 20.2911 19.9802 20.2718 19.9974L19.8658 20.3795C19.8471 20.3714 19.8326 20.3588 19.8208 20.3459L20.245 19.5449C20.2733 19.492 20.3072 19.436 20.3322 19.3824C20.3586 19.3258 20.3275 18.9958 20.3431 18.9006L20.5807 18.9004C20.5975 18.8962 20.8007 18.5001 20.8267 18.4528C20.8466 18.4164 20.8955 18.3334 20.9058 18.2979L20.3455 18.2969V18.2968Z" fill="#FDFDFD"/>
<path fill-rule="evenodd" clip-rule="evenodd" d="M19.9597 20.2121C20.1107 20.0826 20.3063 19.8784 20.4569 19.7455C20.5553 19.6587 20.6936 19.5152 20.7906 19.4325L20.9567 19.2751C20.9935 19.24 21.2821 18.9737 21.2887 18.9576L21.0295 18.957L23.2213 15.6326C23.2755 15.5512 23.3245 15.4753 23.3764 15.3964C23.4018 15.3579 23.5251 15.1782 23.5328 15.1541L22.8172 14.8392C22.7953 14.865 22.303 15.7981 22.2801 15.8435L22.1008 16.1805C21.862 16.619 21.6224 17.0805 21.385 17.5246C21.1463 17.9709 20.9096 18.4199 20.6695 18.869C20.5483 19.0958 20.4356 19.3162 20.3129 19.5394C20.276 19.6064 19.9617 20.1934 19.9597 20.2121V20.2121Z" fill="#F9EEEE"/>
<path fill-rule="evenodd" clip-rule="evenodd" d="M21.8568 18.2407L22.1096 18.2412C22.1035 18.265 22.067 18.3216 22.0527 18.3457L21.882 18.6515C21.7316 18.9202 21.5795 19.2131 21.4276 19.4737C21.3485 19.6097 21.2752 19.7502 21.1998 19.8868C21.0482 20.1613 20.8957 20.4379 20.7449 20.7091L20.4032 21.3264C20.3945 21.3425 20.3019 21.5172 20.2855 21.5336C20.2585 21.5149 20.2052 21.4297 20.172 21.4077C20.1606 21.4266 20.0461 22.1187 20.0335 22.2049C20.0621 22.1928 20.0965 22.1596 20.1221 22.1401L20.5362 21.8165C20.5631 21.796 20.6865 21.7037 20.6983 21.6854L20.489 21.668C20.499 21.6405 20.6378 21.4149 20.6639 21.3708C20.7223 21.2723 20.7805 21.1742 20.8395 21.0756C20.9579 20.8781 21.0755 20.6815 21.1916 20.4857C21.3089 20.288 21.4222 20.0959 21.5435 19.8955L23.1289 17.2366C23.1537 17.1949 23.2965 16.9613 23.3048 16.9348C23.2832 16.9445 22.7961 17.388 22.7621 17.4205C22.7348 17.4468 22.7015 17.4743 22.6719 17.5005L22.5804 17.5848C22.403 17.7406 22.2114 17.9229 22.0361 18.0732L21.8567 18.2404L21.8568 18.2407Z" fill="#F9EEEE"/>
<path fill-rule="evenodd" clip-rule="evenodd" d="M21.2317 20.5347L23.5794 20.5351V19.8629H21.636C21.6203 19.8672 21.3746 20.29 21.3328 20.3605C21.308 20.4023 21.247 20.4929 21.2317 20.5348V20.5347Z" fill="#FDFDFD"/>
<path fill-rule="evenodd" clip-rule="evenodd" d="M22.17 17.3341C22.3019 17.3446 22.5768 17.3361 22.7372 17.3357C22.7884 17.3356 22.8092 17.3013 22.8731 17.2422L23.4178 16.7551C23.4329 16.7629 23.4492 16.7783 23.4605 16.7897L23.1376 17.3334L23.5795 17.3354L23.5795 16.6631H22.6178C22.5987 16.6671 22.2693 17.179 22.2251 17.2467C22.207 17.2744 22.1817 17.3073 22.1701 17.3342L22.17 17.3341Z" fill="white"/>
<path fill-rule="evenodd" clip-rule="evenodd" d="M21.1373 18.8991L21.6588 18.9004C21.6778 18.8959 21.826 18.6238 21.8387 18.6023C21.869 18.551 21.8962 18.5025 21.926 18.4514C21.9439 18.4207 22.0039 18.3254 22.011 18.2983L21.5396 18.2982L21.1373 18.8991L21.1373 18.8991Z" fill="#FDFDFD"/>
<path fill-rule="evenodd" clip-rule="evenodd" d="M22.2067 18.9003L22.7749 18.9002L22.7747 18.2993L22.5617 18.2985L22.3841 18.5973C22.3528 18.6504 22.3266 18.693 22.2949 18.7464C22.2745 18.7807 22.2176 18.8665 22.2067 18.9004L22.2067 18.9003Z" fill="#FDFDFD"/>
<path fill-rule="evenodd" clip-rule="evenodd" d="M20.3455 18.2969L20.3439 17.338C20.548 17.3272 20.9195 17.3373 21.1538 17.3373L21.4087 17.3368C21.4211 17.3342 21.4135 17.3368 21.4203 17.3311C21.2882 17.3331 20.3826 17.32 20.3399 17.3362C20.3326 17.3861 20.3392 18.0995 20.3381 18.2465C20.338 18.2541 20.3371 18.2686 20.3376 18.2753C20.3391 18.2965 20.3336 18.2897 20.3455 18.2969H20.3455Z" fill="#857728"/>
</g>
<defs>
<clipPath id="clip0_504_70">
<rect width="43" height="43" fill="white"/>
</clipPath>
</defs>
</svg>
